<?xml version="1.0" standalone="no"?><!DOCTYPE svg PUBLIC "-//W3C//DTD SVG 1.1//EN" "http://www.w3.org/Graphics/SVG/1.1/DTD/svg11.dtd"><svg class="icon" width="200px" height="200.00px" viewBox="0 0 1024 1024" version="1.1" xmlns="http://www.w3.org/2000/svg"><path d="M38.04 518.35a475.12 487.33 0 1 0 950.24 0 475.12 487.33 0 1 0-950.24 0Z" fill="#07AA74" /><path d="M513.16 18.75C258.74 18.75 52.5 224.99 52.5 479.41c0 254.42 206.25 460.66 460.66 460.66s460.66-206.25 460.66-460.66c0.01-254.42-206.24-460.66-460.66-460.66z m0 769.72c-170.69 0-309.06-138.37-309.06-309.06s138.37-309.06 309.06-309.06 309.06 138.37 309.06 309.06c0.01 170.69-138.37 309.06-309.06 309.06z" fill="#56D8B0" /><path d="M715.47 479.41c0 25.62-20.77 46.4-46.4 46.4H559.56v109.51c0 25.62-20.77 46.4-46.4 46.4-25.62 0-46.4-20.78-46.4-46.4V525.81H357.25c-25.62 0-46.4-20.78-46.4-46.4 0-25.63 20.78-46.4 46.4-46.4h109.51V323.5c0-25.62 20.78-46.4 46.4-46.4 25.63 0 46.4 20.78 46.4 46.4v109.51h109.51c25.63 0 46.4 20.77 46.4 46.4z" fill="#FFFFFF" /></svg>