<?xml version="1.0" standalone="no"?><!DOCTYPE svg PUBLIC "-//W3C//DTD SVG 1.1//EN" "http://www.w3.org/Graphics/SVG/1.1/DTD/svg11.dtd"><svg class="icon" width="200px" height="200.00px" viewBox="0 0 1024 1024" version="1.1" xmlns="http://www.w3.org/2000/svg"><path d="M512 512m-491.52 0a491.52 491.52 0 1 0 983.04 0 491.52 491.52 0 1 0-983.04 0Z" fill="#376CF6" opacity=".3" /><path d="M512 512m-389.12 0a389.12 389.12 0 1 0 778.24 0 389.12 389.12 0 1 0-778.24 0Z" fill="#376CF6" opacity=".4" /><path d="M746.7008 532.48H277.2992a20.48 20.48 0 0 1-13.5168-35.84l150.1184-131.4816a20.48 20.48 0 0 1 27.0336 30.9248L331.776 491.52h414.9248a20.48 20.48 0 0 1 0 40.96z" fill="#FFFFFF" /><path d="M430.08 664.9856a20.48 20.48 0 0 1-13.5168-5.12L266.24 528.384a20.48 20.48 0 0 1-1.8432-28.8768 20.48 20.48 0 0 1 28.8768-1.8432l149.9136 131.2768a20.48 20.48 0 0 1 1.8432 29.0816 20.48 20.48 0 0 1-14.9504 6.9632z" fill="#FFFFFF" /></svg>