<?xml version="1.0" standalone="no"?><!DOCTYPE svg PUBLIC "-//W3C//DTD SVG 1.1//EN" "http://www.w3.org/Graphics/SVG/1.1/DTD/svg11.dtd"><svg class="icon" width="200px" height="200.00px" viewBox="0 0 1024 1024" version="1.1" xmlns="http://www.w3.org/2000/svg"><path d="M512.260981 1023.999838A481.786983 481.786983 0 0 1 354.473315 86.831817 48.599897 48.599897 0 1 1 386.873246 178.199624a384.587188 384.587188 0 1 0 242.999487-2.591995 48.599897 48.599897 0 1 1 29.807937-92.501804 481.786983 481.786983 0 0 1-147.743688 940.408014z" fill="#FF5A7E" /><path d="M512.260981 448.253054a48.599897 48.599897 0 0 1-48.599897-48.599898V48.599897a48.599897 48.599897 0 0 1 97.199795 0v351.053259a48.599897 48.599897 0 0 1-48.599898 48.599898z" fill="#FFDC4A" /></svg>