<?xml version="1.0" standalone="no"?><!DOCTYPE svg PUBLIC "-//W3C//DTD SVG 1.1//EN" "http://www.w3.org/Graphics/SVG/1.1/DTD/svg11.dtd"><svg class="icon" width="200px" height="200.00px" viewBox="0 0 1024 1024" version="1.1" xmlns="http://www.w3.org/2000/svg"><path fill="#ffffff" d="M753.143467 734.519467c-11.383467-0.290133-12.842667-11.328-12.842667-15.684267-0.290133-11.332267 0-22.954667 0-33.988267v-15.104-15.108266-33.988267c0-7.552 3.502933-15.3984 12.842667-15.688533h0.290133c7.5904 0 12.842667 5.8112 13.1328 14.523733 0.584533 33.988267 0.584533 67.976533 0 101.0944 0 8.426667-5.248 14.2336-12.842667 14.2336l-0.580266-0.290133z m0 76.693333a13.013333 13.013333 0 0 1-9.339734-3.776c-2.628267-2.615467-3.797333-6.391467-3.797333-10.752 0.298667-7.552 5.841067-13.3632 13.137067-13.3632 3.797333 0 7.005867 1.450667 9.629866 3.780267 2.628267 2.6112 3.797333 6.3872 3.797334 10.747733-0.2944 7.842133-5.546667 13.3632-13.4272 13.3632z"  /><path fill="#ffffff" d="M961.9328 698.210133c-7.5904-108.356267-98.645333-192.891733-206.929067-192.891733-14.882133 0-30.058667 1.745067-44.945066 4.936533-2.9184 0.584533-5.546667 0.874667-8.465067 0.874667-10.504533 0-18.090667-4.9408-24.8064-10.167467-53.410133-42.1248-110.613333-63.616-170.4448-63.616-35.605333 0-72.96 7.552-110.903467 22.656-27.729067 11.037867-54.2848 28.4672-80.554666 53.742934-8.4608 8.132267-6.711467 13.943467-4.0832 18.88 3.208533 5.8112 7.0016 6.391467 9.629866 6.391466 1.749333 0 3.498667-0.290133 5.252267-0.8704 3.797333-1.1648 8.465067-5.521067 11.093333-7.8464 45.819733-42.120533 100.394667-64.196267 161.979734-65.066666h4.962133c53.700267 0 101.563733 15.9744 146.218667 49.092266l14.007466 10.453334-14.882133 9.006933c-32.3968 19.464533-57.787733 45.0304-77.341867 78.144l-4.962133 8.136533-9.045333-2.9056c-23.351467-7.842133-43.195733-11.6224-61.000534-11.6224-30.933333 0-54.869333 11.912533-75.298133 37.184-27.434667 34.2784-29.768533 82.500267-6.1312 119.684267 19.848533 31.377067 44.654933 44.736 82.888533 44.736 16.0512 0 34.146133-2.321067 55.744-7.261867l8.170667-2.030933 7.296 12.202667c2.048 3.191467 3.797333 6.3872 5.841067 9.582933 37.354667 62.165333 105.6512 100.804267 178.615466 100.804267 21.013333 0 41.736533-3.2 61.870934-9.301334 91.648-29.047467 152.9344-118.229333 146.218666-212.928z m-410.645333-31.086933c-6.711467 26.436267-7.296 53.742933-2.039467 81.0496 4.0832 20.625067-11.383467 27.016533-16.3456 29.051733-9.339733 3.776-19.264 5.806933-29.184 5.806934-42.321067 0-77.051733-34.2784-77.341867-76.398934 0-20.625067 7.880533-39.799467 22.472534-54.3232 14.592-14.523733 34.436267-22.9504 54.869333-22.9504 11.3792 0 22.472533 2.615467 32.981333 7.552 13.128533 6.101333 18.090667 16.2688 14.592 30.212267z m203.136 225.719467h-0.2944c-100.104533-0.2944-181.533867-81.0496-181.533867-180.398934 0-47.6416 18.9696-92.672 53.12-127.240533 34.436267-34.2784 79.381333-53.448533 127.249067-53.448533 49.028267 0 95.146667 18.88 129.578666 52.868266 34.4448 33.988267 53.4144 79.598933 53.4144 127.8208-0.2944 99.349333-81.719467 180.394667-181.533866 180.394667zM922.24 302.843733c-2.628267 0-6.1312-1.745067-9.629867-4.9408-5.841067-5.226667-11.677867-10.167467-17.514666-15.394133-14.592-13.073067-30.058667-26.7264-46.114134-38.638933-99.229867-74.653867-218.5984-113.873067-344.682666-113.873067-152.3456 0-295.355733 57.514667-402.760534 161.8048l-0.290133 0.2944c-2.628267 2.321067-4.962133 4.6464-7.296 6.6816-3.2128 2.321067-6.421333 3.776-9.634133 3.776-3.208533 0-6.421333-1.450667-9.045334-4.0704-2.048-2.321067-8.465067-9.873067-0.584533-17.429333 19.844267-18.88 40.567467-38.344533 62.455467-54.613334C246.007467 145.109333 368.298667 103.850667 499.925333 103.850667c22.766933 0 46.408533 1.1648 70.045867 3.780266 132.795733 13.943467 251.2896 68.846933 352.273067 163.5456 4.3776 4.0704 8.170667 9.301333 12.548266 15.3984 0.874667 1.160533 1.4592 2.325333 2.333867 3.195734-0.290133 0.580267-0.874667 0.8704-1.1648 1.450666-3.502933 4.650667-6.711467 8.426667-9.634133 10.4576-1.749333 0.874667-3.208533 1.1648-4.0832 1.1648z m-121.122133 120.8448c-2.624 0-5.546667-0.8704-7.880534-2.901333-6.126933-4.9408-11.963733-10.171733-18.090666-15.688533a240.938667 240.938667 0 0 0-15.765334-13.653334c-70.920533-58.0992-161.685333-90.056533-255.3728-90.056533-104.192 0-202.257067 38.058667-276.386133 107.485867-1.169067 0.8704-2.048 2.030933-3.2128 2.901333-3.208533 2.9056-6.126933 5.8112-9.045333 8.136533-2.9184 2.325333-6.1312 3.485867-9.0496 3.485867-3.208533 0-6.126933-1.450667-8.7552-4.066133-4.3776-4.356267-7.005867-11.037867-1.169067-17.429334 9.344-9.877333 20.433067-20.334933 34.1504-31.3728 78.801067-63.914667 173.943467-96.157867 283.0976-96.157866h1.169067c104.776533 1.745067 203.136 41.834667 284.8512 115.908266 3.797333 3.485867 7.880533 7.261867 11.093333 11.042134 4.667733 5.806933 4.667733 12.488533-0.2944 17.719466-2.9184 3.195733-6.126933 4.650667-9.339733 4.650667z"  /></svg>