<?xml version="1.0" standalone="no"?><!DOCTYPE svg PUBLIC "-//W3C//DTD SVG 1.1//EN" "http://www.w3.org/Graphics/SVG/1.1/DTD/svg11.dtd"><svg class="icon" width="200px" height="200.00px" viewBox="0 0 1024 1024" version="1.1" xmlns="http://www.w3.org/2000/svg"><path d="M10.24 457.728v14.336a484.352 484.352 0 0 0 486.1952 482.7136h28.4672a484.352 484.352 0 0 0 486.1952-482.7136v-14.336z" fill="#FBE8A2" /><path d="M524.9024 965.0176h-28.4672A495.2064 495.2064 0 0 1 0 472.064v-24.576h1021.3376v24.576a495.2064 495.2064 0 0 1-496.4352 492.9536zM20.48 467.968v4.096a474.7264 474.7264 0 0 0 475.9552 472.4736h28.4672a474.9312 474.9312 0 0 0 475.9552-472.4736v-4.096z"  /><path d="M764.7232 457.728a342.8352 342.8352 0 0 1 46.08 170.3936c0 129.6384-74.5472 244.736-190.0544 317.2352a483.7376 483.7376 0 0 0 390.3488-473.2928v-14.336z" fill="#F1DA7D" /><path d="M524.9024 965.0176h-28.4672A495.2064 495.2064 0 0 1 0 472.064v-24.576h1021.3376v24.576a495.2064 495.2064 0 0 1-496.4352 492.9536zM20.48 467.968v4.096a474.7264 474.7264 0 0 0 475.9552 472.4736h28.4672a474.9312 474.9312 0 0 0 475.9552-472.4736v-4.096z" fill="#A67C52" /><path d="M10.24 443.5968a500.3264 113.664 0 1 0 1000.6528 0 500.3264 113.664 0 1 0-1000.6528 0Z" fill="#F19E9B" /><path d="M510.5664 358.4c255.1808 0 465.7152 43.4176 496.4352 99.328a27.4432 27.4432 0 0 0 4.096-14.1312c0-62.6688-224.0512-113.4592-500.5312-113.4592S10.24 380.928 10.24 443.5968a27.4432 27.4432 0 0 0 4.096 14.1312c30.72-55.9104 241.0496-99.328 496.2304-99.328z" fill="#FFFFFF" /><path d="M510.5664 567.5008C263.168 567.5008 0 524.0832 0 443.5968s263.168-122.88 510.5664-122.88 510.7712 43.2128 510.7712 122.88S757.76 567.5008 510.5664 567.5008z m0-227.1232c-288.768 0-490.0864 54.272-490.0864 102.4s201.3184 103.424 490.0864 103.424 490.2912-54.4768 490.2912-103.424-202.1376-102.4-490.2912-102.4z" fill="#A67C52" /><path d="M229.5808 423.936l128.8192 82.1248h-128.8192V423.936z" fill="#FFFFFF" /><path d="M229.5808 423.5264l129.2288 82.5344h-0.4096l-128.8192-82.1248v-0.4096z" fill="#FFFFFF" /><path d="M229.5808 423.3216l129.6384 82.7392h-0.4096l-129.2288-82.5344v-0.2048z" fill="#FEFFFE" /><path d="M229.5808 422.912l130.2528 83.1488h-0.6144l-129.6384-82.7392v-0.4096z" fill="#FEFEFD" /><path d="M229.5808 422.7072l130.6624 83.3536h-0.4096l-130.2528-83.1488v-0.2048z" fill="#FDFEFC" /><path d="M229.5808 422.2976l131.072 83.7632h-0.4096l-130.6624-83.3536v-0.4096z" fill="#FCFDFB" /><path d="M229.5808 422.0928l131.6864 83.968h-0.6144l-131.072-83.7632v-0.2048z" fill="#FCFDFA" /><path d="M229.5808 421.6832l132.096 84.3776h-0.4096l-131.6864-83.968v-0.4096z" fill="#FBFCF9" /><path d="M229.5808 421.4784l132.7104 84.5824h-0.6144l-132.096-84.3776v-0.2048z" fill="#FBFCF8" /><path d="M229.5808 421.0688l133.12 84.992h-0.4096l-132.7104-84.5824v-0.4096z" fill="#FAFCF7" /><path d="M229.5808 420.864l133.5296 85.1968h-0.4096l-133.12-84.992v-0.2048z" fill="#F9FBF6" /><path d="M229.5808 420.4544l134.144 85.6064h-0.6144l-133.5296-85.1968v-0.4096z" fill="#F9FBF5" /><path d="M229.5808 420.2496l134.5536 85.8112h-0.4096l-134.144-85.6064v-0.2048z" fill="#F8FAF4" /><path d="M229.5808 419.84l134.9632 86.2208h-0.4096l-134.5536-85.8112v-0.4096z" fill="#F7FAF3" /><path d="M229.5808 419.6352l135.5776 86.4256h-0.6144l-134.9632-86.2208v-0.2048z" fill="#F7F9F2" /><path d="M229.5808 419.2256l135.9872 86.8352h-0.4096l-135.5776-86.4256v-0.4096z" fill="#F6F9F1" /><path d="M229.5808 418.816l136.6016 87.2448h-0.6144l-135.9872-86.8352v-0.4096z" fill="#F5F8F0" /><path d="M229.5808 418.6112l137.0112 87.4496h-0.4096l-136.6016-87.2448v-0.2048z" fill="#F5F8EF" /><path d="M229.5808 418.4064l137.4208 87.6544h-0.4096l-137.0112-87.4496v-0.2048z" fill="#F4F8EE" /><path d="M229.5808 417.9968l138.0352 88.064h-0.6144l-137.4208-87.6544v-0.4096z" fill="#F3F7ED" /><path d="M229.5808 417.5872l138.4448 88.4736h-0.4096l-138.0352-88.064v-0.4096z" fill="#F3F7EC" /><path d="M229.5808 417.3824L368.64 506.0608h-0.6144l-138.4448-88.4736v-0.2048z" fill="#F2F6EB" /><path d="M229.5808 416.9728l139.4688 89.088H368.64l-139.0592-88.6784v-0.4096z" fill="#F2F6EA" /><path d="M229.5808 416.768l139.8784 89.2928h-0.4096l-139.4688-89.088v-0.2048z" fill="#F1F5E9" /><path d="M229.5808 416.3584l140.4928 89.7024h-0.6144l-139.8784-89.2928v-0.4096z" fill="#F0F5E8" /><path d="M229.5808 416.1536l140.9024 89.9072h-0.4096l-140.4928-89.7024v-0.2048z" fill="#F0F5E7" /><path d="M229.5808 415.744l141.312 90.3168h-0.4096l-140.9024-89.9072v-0.4096z" fill="#EFF4E6" /><path d="M229.5808 415.5392l141.9264 90.5216h-0.6144l-141.312-90.3168v-0.2048z" fill="#EEF4E5" /><path d="M229.5808 415.1296l142.336 90.9312h-0.4096l-141.9264-90.5216v-0.4096z" fill="#EEF3E4" /><path d="M229.5808 414.9248l142.9504 91.136h-0.6144l-142.336-90.9312v-0.2048z" fill="#EDF3E3" /><path d="M229.5808 414.5152l143.36 91.5456h-0.4096l-142.9504-91.136v-0.4096z" fill="#ECF2E2" /><path d="M229.5808 414.3104l143.7696 91.7504h-0.4096l-143.36-91.5456v-0.2048z" fill="#ECF2E1" /><path d="M229.5808 413.9008l144.384 92.16h-0.6144l-143.7696-91.7504v-0.4096z" fill="#EBF1E0" /><path d="M229.5808 413.696l144.7936 92.3648h-0.4096l-144.384-92.16v-0.2048z" fill="#EAF1DF" /><path d="M229.5808 413.2864l145.2032 92.7744h-0.4096l-144.7936-92.3648v-0.4096z" fill="#EAF1DE" /><path d="M229.5808 413.0816l145.8176 92.9792h-0.6144l-145.2032-92.7744v-0.2048z" fill="#E9F0DD" /><path d="M229.5808 412.672l146.2272 93.3888h-0.4096l-145.8176-92.9792v-0.4096z" fill="#E9F0DC" /><path d="M229.5808 412.4672l146.8416 93.5936h-0.6144l-146.2272-93.3888v-0.2048z" fill="#E8EFDB" /><path d="M229.5808 412.0576l147.2512 94.0032h-0.4096l-146.8416-93.5936v-0.4096z" fill="#E7EFDA" /><path d="M229.5808 411.8528l147.6608 94.208h-0.4096l-147.2512-94.0032v-0.2048z" fill="#E7EED9" /><path d="M229.5808 411.4432l148.0704 94.6176h-0.4096l-147.6608-94.208v-0.4096z" fill="#E6EED8" /><path d="M229.5808 411.0336l148.0704 94.6176v0.4096l-148.0704-94.6176v-0.4096z" fill="#E5EED7" /><path d="M229.5808 410.8288l148.0704 94.6176v0.2048l-148.0704-94.6176v-0.2048z" fill="#E5EDD6" /><path d="M229.5808 410.624l148.0704 94.4128v0.4096l-148.0704-94.6176v-0.2048z" fill="#E4EDD5" /><path d="M229.5808 410.2144l148.0704 94.6176v0.2048l-148.0704-94.4128v-0.4096z" fill="#E3ECD4" /><path d="M229.5808 410.0096l148.0704 94.4128v0.4096l-148.0704-94.6176v-0.2048z" fill="#E3ECD3" /><path d="M229.7856 409.8048l147.8656 94.4128v0.2048l-148.0704-94.4128v-0.2048h0.2048z" fill="#E2EBD2" /><path d="M230.1952 409.8048l147.456 94.0032v0.4096l-147.8656-94.4128h0.4096z" fill="#E2EBD1" /><path d="M230.8096 409.8048l146.8416 93.7984v0.2048l-147.456-94.0032h0.6144z" fill="#E1EAD0" /><path d="M231.2192 409.8048l146.432 93.3888v0.4096l-146.8416-93.7984h0.4096z" fill="#E0EACF" /><path d="M231.6288 409.8048l146.0224 93.184v0.2048l-146.432-93.3888h0.4096z" fill="#E0EACE" /><path d="M232.2432 409.8048l145.408 92.7744v0.4096l-146.0224-93.184h0.6144z" fill="#DFE9CD" /><path d="M232.6528 409.8048l144.9984 92.5696v0.2048l-145.408-92.7744h0.4096z" fill="#DEE9CC" /><path d="M233.2672 409.8048l144.384 92.16v0.4096l-144.9984-92.5696h0.6144z" fill="#DEE8CA" /><path d="M233.6768 409.8048l143.9744 91.9552v0.2048l-144.384-92.16h0.4096z" fill="#DDE8C9" /><path d="M234.0864 409.8048l143.5648 91.5456v0.4096l-143.9744-91.9552h0.4096z" fill="#DCE7C8" /><path d="M234.7008 409.8048l142.9504 91.3408v0.2048l-143.5648-91.5456h0.6144z" fill="#DCE7C7" /><path d="M235.1104 409.8048l142.5408 90.9312v0.4096l-142.9504-91.3408h0.4096z" fill="#DBE7C6" /><path d="M235.7248 409.8048l141.9264 90.7264v0.2048l-142.5408-90.9312h0.6144z" fill="#DAE6C5" /><path d="M236.1344 409.8048l141.5168 90.3168v0.4096l-141.9264-90.7264h0.4096z" fill="#DAE6C4" /><path d="M236.544 409.8048l141.1072 90.112v0.2048l-141.5168-90.3168h0.4096z" fill="#D9E5C3" /><path d="M237.1584 409.8048l140.4928 89.7024v0.4096l-141.1072-90.112h0.6144z" fill="#D9E5C2" /><path d="M237.568 409.8048l140.0832 89.4976v0.2048l-140.4928-89.7024h0.4096z" fill="#D8E4C1" /><path d="M237.9776 409.8048l139.6736 89.088v0.4096l-140.0832-89.4976h0.4096z" fill="#D7E4C0" /><path d="M238.592 409.8048l139.0592 88.6784v0.4096l-139.6736-89.088h0.6144z" fill="#D7E3BF" /><path d="M239.0016 409.8048l138.6496 88.4736v0.2048l-139.0592-88.6784h0.4096z" fill="#D6E3BE" /><path d="M239.616 409.8048l138.0352 88.064v0.4096l-138.6496-88.4736h0.6144z" fill="#D5E3BD" /><path d="M240.0256 409.8048l137.6256 87.8592v0.2048l-138.0352-88.064h0.4096z" fill="#D5E2BC" /><path d="M240.4352 409.8048l137.216 87.4496v0.4096l-137.6256-87.8592h0.4096z" fill="#D4E2BB" /><path d="M241.0496 409.8048l136.6016 87.2448v0.2048l-137.216-87.4496h0.6144z" fill="#D3E1BA" /><path d="M241.4592 409.8048l136.192 86.8352v0.4096l-136.6016-87.2448h0.4096z" fill="#D3E1B9" /><path d="M241.8688 409.8048l135.7824 86.6304v0.2048l-136.192-86.8352h0.4096z" fill="#D2E0B8" /><path d="M242.4832 409.8048l135.168 86.2208v0.4096l-135.7824-86.6304h0.6144z" fill="#D2E0B7" /><path d="M242.8928 409.8048l134.7584 86.016v0.2048l-135.168-86.2208h0.4096z" fill="#D1E0B6" /><path d="M243.5072 409.8048l134.144 85.6064v0.4096l-134.7584-86.016h0.6144z" fill="#D0DFB5" /><path d="M243.9168 409.8048l133.7344 85.4016v0.2048l-134.144-85.6064h0.4096z" fill="#D0DFB4" /><path d="M244.3264 409.8048l133.3248 84.992v0.4096l-133.7344-85.4016h0.4096z" fill="#CFDEB3" /><path d="M244.9408 409.8048l132.7104 84.7872v0.2048l-133.3248-84.992h0.6144z" fill="#CEDEB2" /><path d="M245.3504 409.8048l132.3008 84.3776v0.4096l-132.7104-84.7872h0.4096z" fill="#CEDDB1" /><path d="M245.9648 409.8048l131.6864 84.1728v0.2048l-132.3008-84.3776h0.6144z" fill="#CDDDB0" /><path d="M246.3744 409.8048l131.2768 83.7632v0.4096l-131.6864-84.1728h0.4096z" fill="#CCDCAF" /><path d="M246.784 409.8048l130.8672 83.5584v0.2048l-131.2768-83.7632h0.4096z" fill="#CCDCAE" /><path d="M247.3984 409.8048l130.2528 83.1488v0.4096l-130.8672-83.5584h0.6144z" fill="#CBDCAD" /><path d="M247.808 409.8048l129.8432 82.944v0.2048l-130.2528-83.1488h0.4096z" fill="#CADBAC" /><path d="M248.4224 409.8048l129.2288 82.5344v0.4096l-129.8432-82.944h0.6144z" fill="#CADBAB" /><path d="M248.832 409.8048l128.8192 82.1248v0.4096l-129.2288-82.5344h0.4096z" fill="#C9DAAA" /><path d="M249.2416 409.8048l128.4096 81.92v0.2048l-128.8192-82.1248h0.4096z" fill="#C9DAA9" /><path d="M249.856 409.8048L377.6512 491.52v0.2048l-128.4096-81.92h0.6144z" fill="#C8D9A8" /><path d="M250.2656 409.8048l127.3856 81.3056V491.52l-127.7952-81.7152h0.4096z" fill="#C7D9A7" /><path d="M250.6752 409.8048l126.976 80.896v0.4096l-127.3856-81.3056h0.4096z" fill="#C7D9A6" /><path d="M251.2896 409.8048l126.3616 80.6912v0.2048l-126.976-80.896h0.6144z" fill="#C6D8A5" /><path d="M251.6992 409.8048l125.952 80.2816v0.4096l-126.3616-80.6912h0.4096z" fill="#C5D8A4" /><path d="M252.1088 409.8048l125.5424 80.0768v0.2048l-125.952-80.2816h0.4096z" fill="#C5D7A3" /><path d="M252.7232 409.8048l124.928 79.6672v0.4096l-125.5424-80.0768h0.6144z" fill="#C4D7A2" /><path d="M253.1328 409.8048l124.5184 79.4624v0.2048l-124.928-79.6672h0.4096z" fill="#C3D6A1" /><path d="M253.7472 409.8048l123.904 79.0528v0.4096l-124.5184-79.4624h0.6144z" fill="#C3D6A0" /><path d="M254.1568 409.8048l123.4944 78.848v0.2048l-123.904-79.0528h0.4096z" fill="#C2D59F" /><path d="M254.5664 409.8048l123.0848 78.4384v0.4096l-123.4944-78.848h0.4096z" fill="#C1D59E" /><path d="M255.1808 409.8048l122.4704 78.2336v0.2048l-123.0848-78.4384h0.6144z" fill="#C1D59D" /><path d="M255.5904 409.8048l122.0608 77.824v0.4096l-122.4704-78.2336h0.4096z" fill="#C0D49C" /><path d="M256.2048 409.8048l121.4464 77.6192v0.2048l-122.0608-77.824h0.6144z" fill="#C0D49B" /><path d="M256.6144 409.8048l121.0368 77.2096v0.4096l-121.4464-77.6192h0.4096z" fill="#BFD39A" /><path d="M257.024 409.8048l120.6272 77.0048v0.2048l-121.0368-77.2096h0.4096z" fill="#BED399" /><path d="M257.6384 409.8048l120.0128 76.5952v0.4096l-120.6272-77.0048h0.6144z" fill="#BED298" /><path d="M258.048 409.8048l119.6032 76.3904v0.2048l-120.0128-76.5952h0.4096zM377.6512 486.1952l-119.6032-76.3904h119.6032v76.3904z" fill="#BDD297" /><path d="M338.3296 512a132.3008 132.3008 0 0 1-53.6576-13.1072 105.2672 105.2672 0 0 1-56.5248-50.7904 30.5152 30.5152 0 0 1 0-24.3712c10.6496-23.3472 51.2-26.0096 94.0032-6.3488a106.7008 106.7008 0 0 1 56.7296 50.7904 30.5152 30.5152 0 0 1 0 24.3712 40.96 40.96 0 0 1-40.5504 19.456z m-69.8368-87.2448c-11.6736 0-20.48 3.072-21.7088 7.5776a10.8544 10.8544 0 0 0 0 8.6016 88.064 88.064 0 0 0 45.8752 39.5264c34.6112 15.7696 62.8736 12.6976 66.9696 3.4816a10.6496 10.6496 0 0 0 0-8.6016 87.8592 87.8592 0 0 0-45.8752-39.3216 113.4592 113.4592 0 0 0-45.2608-11.4688z" fill="#A67C52" /><path d="M417.1776 390.7584l93.184 80.6912h-93.184v-80.6912z" fill="#FFFFFF" /><path d="M417.1776 390.3488l93.5936 81.1008h-0.4096l-93.184-80.6912v-0.4096z" fill="#FFFFFF" /><path d="M417.1776 390.144l93.7984 81.3056h-0.2048l-93.5936-81.1008v-0.2048z" fill="#FFFFFE" /><path d="M417.1776 389.7344l94.208 81.7152h-0.4096l-93.7984-81.3056v-0.4096z" fill="#FFFFFD" /><path d="M417.1776 389.5296l94.6176 81.92h-0.4096l-94.208-81.7152v-0.2048z" fill="#FFFEFC" /><path d="M417.1776 389.12l95.0272 82.3296h-0.4096l-94.6176-81.92V389.12z" fill="#FFFEFB" /><path d="M417.1776 388.7104l95.4368 82.7392h-0.4096L417.1776 389.12v-0.4096z" fill="#FFFEFA" /><path d="M417.1776 388.5056l95.8464 82.944h-0.4096l-95.4368-82.7392v-0.2048z" fill="#FFFEF9" /><path d="M417.1776 388.096l96.256 83.3536h-0.4096l-95.8464-82.944v-0.4096z" fill="#FFFDF8" /><path d="M417.1776 387.8912l96.4608 83.5584h-0.2048l-96.256-83.3536v-0.2048z" fill="#FFFDF7" /><path d="M417.1776 387.4816l96.8704 83.968h-0.4096l-96.4608-83.5584v-0.4096z" fill="#FFFDF6" /><path d="M417.1776 387.072l97.28 84.3776h-0.4096l-96.8704-83.968v-0.4096z" fill="#FFFDF5" /><path d="M417.1776 386.8672l97.6896 84.5824h-0.4096l-97.28-84.3776v-0.2048z" fill="#FFFCF4" /><path d="M417.1776 386.4576l98.0992 84.992h-0.4096l-97.6896-84.5824v-0.4096z" fill="#FEFCF3" /><path d="M417.1776 386.2528l98.5088 85.1968h-0.4096l-98.0992-84.992v-0.2048z" fill="#FEFCF2" /><path d="M417.1776 385.8432l98.7136 85.6064h-0.2048l-98.5088-85.1968v-0.4096z" fill="#FEFCF1" /><path d="M417.5872 385.8432l98.7136 85.6064h-0.4096l-98.7136-85.6064h0.4096z" fill="#FEFBF0" /><path d="M417.792 385.8432l98.9184 85.6064h-0.4096l-98.7136-85.6064h0.2048z" fill="#FEFBEF" /><path d="M418.2016 385.8432l98.9184 85.6064h-0.4096l-98.9184-85.6064h0.4096z" fill="#FEFBEE" /><path d="M418.6112 385.8432l98.9184 85.6064h-0.4096l-98.9184-85.6064h0.4096z" fill="#FEFBED" /><path d="M419.0208 385.8432l98.9184 85.6064h-0.4096l-98.9184-85.6064h0.4096z" fill="#FEFAEC" /><path d="M419.4304 385.8432l98.7136 85.6064h-0.2048l-98.9184-85.6064h0.4096z" fill="#FEFAEB" /><path d="M419.84 385.8432l98.7136 85.6064h-0.4096l-98.7136-85.6064h0.4096z" fill="#FEFAEA" /><path d="M420.2496 385.8432l98.7136 85.6064h-0.4096l-98.7136-85.6064h0.4096z" fill="#FEFAE9" /><path d="M420.4544 385.8432l98.9184 85.6064h-0.4096l-98.7136-85.6064h0.2048z" fill="#FEF9E8" /><path d="M420.864 385.8432l98.9184 85.6064h-0.4096l-98.9184-85.6064h0.4096z" fill="#FEF9E7" /><path d="M421.2736 385.8432l98.9184 85.6064h-0.4096l-98.9184-85.6064h0.4096z" fill="#FEF9E6" /><path d="M421.6832 385.8432l98.7136 85.6064h-0.2048l-98.9184-85.6064h0.4096z" fill="#FEF9E5" /><path d="M422.0928 385.8432l98.7136 85.6064h-0.4096l-98.7136-85.6064h0.4096z" fill="#FEF8E4" /><path d="M422.5024 385.8432l98.7136 85.6064h-0.4096l-98.7136-85.6064h0.4096z" fill="#FEF8E3" /><path d="M422.7072 385.8432l98.9184 85.6064h-0.4096l-98.7136-85.6064h0.2048z" fill="#FEF8E2" /><path d="M423.1168 385.8432l98.9184 85.6064h-0.4096l-98.9184-85.6064h0.4096z" fill="#FEF8E1" /><path d="M423.5264 385.8432l98.9184 85.6064h-0.4096l-98.9184-85.6064h0.4096z" fill="#FEF7E0" /><path d="M423.936 385.8432l98.7136 85.6064h-0.2048l-98.9184-85.6064h0.4096z" fill="#FEF7DF" /><path d="M424.3456 385.8432l98.7136 85.6064h-0.4096l-98.7136-85.6064h0.4096z" fill="#FEF7DE" /><path d="M424.5504 385.8432l98.9184 85.6064h-0.4096l-98.7136-85.6064h0.2048z" fill="#FDF7DD" /><path d="M424.96 385.8432l98.9184 85.6064h-0.4096l-98.9184-85.6064h0.4096z" fill="#FDF6DC" /><path d="M425.3696 385.8432l98.9184 85.6064h-0.4096l-98.9184-85.6064h0.4096z" fill="#FDF6DB" /><path d="M425.7792 385.8432l98.9184 85.6064h-0.4096l-98.9184-85.6064h0.4096z" fill="#FDF6DA" /><path d="M426.1888 385.8432l98.9184 85.6064h-0.4096l-98.9184-85.6064h0.4096z" fill="#FDF6D9" /><path d="M426.5984 385.8432l98.7136 85.6064h-0.2048l-98.9184-85.6064h0.4096z" fill="#FDF5D8" /><path d="M427.008 385.8432l98.7136 85.6064h-0.4096l-98.7136-85.6064h0.4096z" fill="#FDF5D7" /><path d="M427.2128 385.8432l98.9184 85.6064h-0.4096l-98.7136-85.6064h0.2048z" fill="#FDF5D6" /><path d="M427.6224 385.8432l98.9184 85.6064h-0.4096l-98.9184-85.6064h0.4096z" fill="#FDF5D5" /><path d="M428.032 385.8432l98.9184 85.6064h-0.4096l-98.9184-85.6064h0.4096z" fill="#FDF4D4" /><path d="M428.4416 385.8432l98.9184 85.6064h-0.4096l-98.9184-85.6064h0.4096z" fill="#FDF4D3" /><path d="M428.8512 385.8432l98.9184 85.6064h-0.4096l-98.9184-85.6064h0.4096z" fill="#FDF4D2" /><path d="M429.2608 385.8432l98.7136 85.6064h-0.2048l-98.9184-85.6064h0.4096z" fill="#FDF4D0" /><path d="M429.6704 385.8432l98.7136 85.6064h-0.4096l-98.7136-85.6064h0.4096z" fill="#FDF4CF" /><path d="M429.8752 385.8432l98.9184 85.6064h-0.4096l-98.7136-85.6064h0.2048z" fill="#FDF3CE" /><path d="M430.2848 385.8432l98.9184 85.6064h-0.4096l-98.9184-85.6064h0.4096z" fill="#FDF3CD" /><path d="M430.6944 385.8432l98.9184 85.6064h-0.4096l-98.9184-85.6064h0.4096z" fill="#FDF3CC" /><path d="M431.104 385.8432l98.9184 85.6064h-0.4096l-98.9184-85.6064h0.4096z" fill="#FDF3CB" /><path d="M431.5136 385.8432l98.7136 85.6064h-0.2048l-98.9184-85.6064h0.4096z" fill="#FDF2CA" /><path d="M431.9232 385.8432l98.7136 85.6064h-0.4096l-98.7136-85.6064h0.4096z" fill="#FDF2C9" /><path d="M432.128 385.8432l98.5088 85.4016v0.2048l-98.7136-85.6064h0.2048z" fill="#FDF2C8" /><path d="M432.5376 385.8432l98.0992 84.992v0.4096l-98.5088-85.4016h0.4096z" fill="#FDF2C7" /><path d="M432.9472 385.8432l97.6896 84.7872v0.2048l-98.0992-84.992h0.4096z" fill="#FDF1C6" /><path d="M433.3568 385.8432l97.28 84.3776v0.4096l-97.6896-84.7872h0.4096z" fill="#FCF1C5" /><path d="M433.7664 385.8432l96.8704 83.968v0.4096l-97.28-84.3776h0.4096z" fill="#FCF1C4" /><path d="M434.176 385.8432l96.4608 83.7632v0.2048l-96.8704-83.968h0.4096z" fill="#FCF1C3" /><path d="M434.3808 385.8432l96.256 83.3536v0.4096l-96.4608-83.7632h0.2048z" fill="#FCF0C2" /><path d="M434.7904 385.8432l95.8464 83.1488v0.2048l-96.256-83.3536h0.4096z" fill="#FCF0C1" /><path d="M435.2 385.8432l95.4368 82.7392v0.4096l-95.8464-83.1488h0.4096z" fill="#FCF0C0" /><path d="M435.6096 385.8432l95.0272 82.3296v0.4096l-95.4368-82.7392h0.4096z" fill="#FCF0BF" /><path d="M436.0192 385.8432l94.6176 82.1248v0.2048l-95.0272-82.3296h0.4096z" fill="#FCEFBE" /><path d="M436.4288 385.8432l94.208 81.7152v0.4096l-94.6176-82.1248h0.4096z" fill="#FCEFBD" /><path d="M436.6336 385.8432l94.0032 81.5104v0.2048l-94.208-81.7152h0.2048z" fill="#FCEFBC" /><path d="M437.0432 385.8432l93.5936 81.1008v0.4096l-94.0032-81.5104h0.4096z" fill="#FCEFBB" /><path d="M437.4528 385.8432l93.184 80.896v0.2048l-93.5936-81.1008h0.4096z" fill="#FCEEBA" /><path d="M437.8624 385.8432l92.7744 80.4864v0.4096l-93.184-80.896h0.4096z" fill="#FCEEB9" /><path d="M438.272 385.8432l92.3648 80.0768v0.4096l-92.7744-80.4864h0.4096z" fill="#FCEEB8" /><path d="M438.6816 385.8432l91.9552 79.872v0.2048l-92.3648-80.0768h0.4096z" fill="#FCEEB7" /><path d="M438.8864 385.8432l91.7504 79.4624v0.4096l-91.9552-79.872h0.2048z" fill="#FCEDB6" /><path d="M439.296 385.8432l91.3408 79.0528v0.4096l-91.7504-79.4624h0.4096z" fill="#FCEDB5" /><path d="M439.7056 385.8432l90.9312 78.848v0.2048l-91.3408-79.0528h0.4096z" fill="#FCEDB4" /><path d="M440.1152 385.8432l90.5216 78.4384v0.4096l-90.9312-78.848h0.4096z" fill="#FCEDB3" /><path d="M440.5248 385.8432l90.112 78.2336v0.2048l-90.5216-78.4384h0.4096z" fill="#FCECB2" /><path d="M440.9344 385.8432l89.7024 77.824v0.4096l-90.112-78.2336h0.4096z" fill="#FCECB1" /><path d="M441.344 385.8432l89.2928 77.6192v0.2048l-89.7024-77.824h0.4096z" fill="#FCECB0" /><path d="M441.5488 385.8432l89.088 77.2096v0.4096l-89.2928-77.6192h0.2048z" fill="#FBECAF" /><path d="M441.9584 385.8432l88.6784 76.8v0.4096l-89.088-77.2096h0.4096z" fill="#FBEBAE" /><path d="M442.368 385.8432l88.2688 76.5952v0.2048l-88.6784-76.8h0.4096z" fill="#FBEBAD" /><path d="M442.7776 385.8432l87.8592 76.1856v0.4096l-88.2688-76.5952h0.4096z" fill="#FBEBAC" /><path d="M443.1872 385.8432l87.4496 75.9808v0.2048l-87.8592-76.1856h0.4096z" fill="#FBEBAB" /><path d="M443.5968 385.8432l87.04 75.5712v0.4096l-87.4496-75.9808h0.4096z" fill="#FBEAAA" /><path d="M443.8016 385.8432l86.8352 75.1616v0.4096l-87.04-75.5712h0.2048z" fill="#FBEAA9" /><path d="M444.2112 385.8432l86.4256 74.9568v0.2048l-86.8352-75.1616h0.4096z" fill="#FBEAA8" /><path d="M444.6208 385.8432l86.016 74.5472v0.4096l-86.4256-74.9568h0.4096z" fill="#FBEAA7" /><path d="M445.0304 385.8432l85.6064 74.1376v0.4096l-86.016-74.5472h0.4096z" fill="#FBE9A6" /><path d="M445.44 385.8432l85.1968 73.9328v0.2048l-85.6064-74.1376h0.4096z" fill="#FBE9A5" /><path d="M445.8496 385.8432l84.7872 73.5232v0.4096l-85.1968-73.9328h0.4096z" fill="#FBE9A4" /><path d="M530.6368 459.3664l-84.7872-73.5232h84.7872v73.5232z" fill="#FBE9A4" /><path d="M500.1216 473.7024A106.496 106.496 0 0 1 440.1152 450.56c-24.7808-18.8416-35.0208-41.984-25.6-57.9584s34.6112-18.432 63.0784-6.5536a96.0512 96.0512 0 0 1 53.6576 48.9472 28.0576 28.0576 0 0 1-1.8432 24.3712 28.2624 28.2624 0 0 1-20.48 13.312 46.6944 46.6944 0 0 1-8.8064 1.024zM444.416 399.36c-6.7584 0-11.0592 1.8432-12.288 3.8912s2.4576 17.6128 20.48 31.1296a78.848 78.848 0 0 0 52.8384 18.432 9.0112 9.0112 0 0 0 6.5536-3.6864s1.6384-2.6624 0-7.3728a77.824 77.824 0 0 0-42.1888-36.4544 65.536 65.536 0 0 0-25.3952-5.9392z" fill="#A67C52" /><path d="M692.0192 388.7104l-118.784 31.1296v-42.1888h118.784v11.0592z" fill="#BD97D3" /><path d="M692.0192 389.3248l-118.784 31.1296v-0.6144l118.784-31.1296v0.6144z" fill="#BD97D3" /><path d="M692.0192 389.9392l-118.784 30.9248v-0.4096l118.784-31.1296v0.6144z" fill="#C09CD5" /><path d="M692.0192 390.3488l-118.784 31.1296v-0.6144l118.784-30.9248v0.4096z" fill="#C3A1D7" /><path d="M692.0192 390.9632l-118.784 31.1296v-0.6144l118.784-31.1296v0.6144z" fill="#C6A5D9" /><path d="M692.0192 391.5776l-118.784 31.1296v-0.6144l118.784-31.1296v0.6144z" fill="#C9AADB" /><path d="M692.0192 392.192l-118.784 31.1296v-0.6144l118.784-31.1296v0.6144z" fill="#CBAEDD" /><path d="M692.0192 392.8064l-118.784 31.1296v-0.6144l118.784-31.1296v0.6144z" fill="#CEB2DE" /><path d="M692.0192 393.4208l-118.784 31.1296v-0.6144l118.784-31.1296v0.6144z" fill="#D1B6E0" /><path d="M692.0192 393.8304l-118.784 31.1296v-0.4096l118.784-31.1296v0.4096z" fill="#D3B9E2" /><path d="M692.0192 394.4448l-118.784 31.1296v-0.6144l118.784-31.1296v0.6144z" fill="#D5BDE3" /><path d="M692.0192 395.0592l-118.784 31.1296v-0.6144l118.784-31.1296v0.6144z" fill="#D7C0E5" /><path d="M692.0192 395.6736l-118.784 31.1296v-0.6144l118.784-31.1296v0.6144z" fill="#D9C4E6" /><path d="M692.0192 396.288l-118.784 31.1296v-0.6144l118.784-31.1296v0.6144z" fill="#DBC7E7" /><path d="M692.0192 396.9024l-118.784 31.1296v-0.6144l118.784-31.1296v0.6144z" fill="#DDCAE9" /><path d="M692.0192 397.5168l-118.784 31.1296v-0.6144l118.784-31.1296v0.6144z" fill="#DFCDEA" /><path d="M692.0192 397.9264l-118.784 31.1296v-0.4096l118.784-31.1296v0.4096z" fill="#E1CFEB" /><path d="M692.0192 398.5408l-118.784 31.1296v-0.6144l118.784-31.1296v0.6144z" fill="#E3D2EC" /><path d="M692.0192 399.1552l-118.784 31.1296v-0.6144l118.784-31.1296v0.6144z" fill="#E4D5ED" /><path d="M692.0192 399.7696l-118.784 31.1296v-0.6144l118.784-31.1296v0.6144z" fill="#E6D7EE" /><path d="M692.0192 400.384l-118.784 31.1296v-0.6144l118.784-31.1296v0.6144z" fill="#E7D9EF" /><path d="M692.0192 400.9984l-118.784 31.1296v-0.6144l118.784-31.1296v0.6144z" fill="#E8DBF0" /><path d="M692.0192 401.6128l-118.784 31.1296v-0.6144l118.784-31.1296v0.6144z" fill="#EADEF1" /><path d="M692.0192 402.0224l-118.784 31.1296v-0.4096l118.784-31.1296v0.4096z" fill="#EBE0F2" /><path d="M692.0192 402.6368l-118.784 31.1296v-0.6144l118.784-31.1296v0.6144z" fill="#ECE1F2" /><path d="M692.0192 403.2512l-118.784 31.1296v-0.6144l118.784-31.1296v0.6144z" fill="#EDE3F3" /><path d="M692.0192 403.8656l-118.784 31.1296v-0.6144l118.784-31.1296v0.6144z" fill="#EEE5F4" /><path d="M692.0192 404.48l-118.784 31.1296v-0.6144l118.784-31.1296v0.6144z" fill="#EFE7F5" /><path d="M692.0192 405.0944l-118.784 31.1296v-0.6144l118.784-31.1296v0.6144z" fill="#F0E8F5" /><path d="M692.0192 405.504l-118.784 31.1296v-0.4096l118.784-31.1296v0.4096z" fill="#F1EAF6" /><path d="M692.0192 406.1184l-118.784 31.1296v-0.6144l118.784-31.1296v0.6144z" fill="#F2EBF7" /><path d="M692.0192 406.7328l-118.784 31.1296v-0.6144l118.784-31.1296v0.6144z" fill="#F3ECF7" /><path d="M692.0192 407.3472l-118.784 31.1296v-0.6144l118.784-31.1296v0.6144z" fill="#F4EDF8" /><path d="M692.0192 407.9616l-118.784 31.1296v-0.6144l118.784-31.1296v0.6144z" fill="#F5EFF8" /><path d="M692.0192 408.576l-118.784 31.1296v-0.6144l118.784-31.1296v0.6144z" fill="#F5F0F9" /><path d="M692.0192 409.1904l-118.784 31.1296v-0.6144l118.784-31.1296v0.6144z" fill="#F6F1F9" /><path d="M692.0192 409.6l-118.784 31.1296v-0.4096l118.784-31.1296V409.6z" fill="#F7F2F9" /><path d="M692.0192 410.2144l-118.784 31.1296v-0.6144l118.784-31.1296v0.6144z" fill="#F7F3FA" /><path d="M692.0192 410.8288l-118.784 31.1296v-0.6144l118.784-31.1296v0.6144z" fill="#F8F4FA" /><path d="M692.0192 411.4432l-118.784 31.1296v-0.6144l118.784-31.1296v0.6144z" fill="#F8F4FB" /><path d="M692.0192 412.0576l-118.784 31.1296v-0.6144l118.784-31.1296v0.6144z" fill="#F9F5FB" /><path d="M692.0192 412.672l-118.784 31.1296v-0.6144l118.784-31.1296v0.6144z" fill="#F9F6FB" /><path d="M692.0192 413.2864l-118.784 31.1296v-0.6144l118.784-31.1296v0.6144z" fill="#FAF7FB" /><path d="M692.0192 413.696l-118.784 31.1296v-0.4096l118.784-31.1296v0.4096z" fill="#FAF7FC" /><path d="M692.0192 414.3104l-118.784 31.1296v-0.6144l118.784-31.1296v0.6144z" fill="#FBF8FC" /><path d="M692.0192 414.9248l-118.784 31.1296v-0.6144l118.784-31.1296v0.6144z" fill="#FBF9FC" /><path d="M692.0192 415.5392l-118.784 31.1296v-0.6144l118.784-31.1296v0.6144z" fill="#FBF9FC" /><path d="M692.0192 416.1536l-118.784 31.1296v-0.6144l118.784-31.1296v0.6144z" fill="#FCFAFD" /><path d="M692.0192 416.768l-118.784 31.1296v-0.6144l118.784-31.1296v0.6144z" fill="#FCFAFD" /><path d="M692.0192 417.3824l-118.784 30.9248v-0.4096l118.784-31.1296v0.6144z" fill="#FCFAFD" /><path d="M692.0192 417.792l-118.784 31.1296v-0.6144l118.784-30.9248v0.4096z" fill="#FCFBFD" /><path d="M692.0192 418.4064l-118.784 31.1296v-0.6144l118.784-31.1296v0.6144z" fill="#FDFBFD" /><path d="M692.0192 419.0208l-118.784 31.1296v-0.6144l118.784-31.1296v0.6144z" fill="#FDFCFE" /><path d="M692.0192 419.6352l-118.784 31.1296v-0.6144l118.784-31.1296v0.6144z" fill="#FDFCFE" /><path d="M692.0192 420.2496l-118.784 31.1296v-0.6144l118.784-31.1296v0.6144z" fill="#FDFCFE" /><path d="M692.0192 420.864L573.44 451.7888h-0.2048v-0.4096l118.784-31.1296v0.6144z" fill="#FDFCFE" /><path d="M692.0192 421.2736l-116.3264 30.5152H573.44l118.5792-30.9248v0.4096zM692.0192 421.888l-114.0736 29.9008h-2.2528l116.3264-30.5152v0.6144z" fill="#FEFDFE" /><path d="M692.0192 422.5024l-111.8208 29.2864h-2.2528l114.0736-29.9008v0.6144z" fill="#FEFDFE" /><path d="M692.0192 423.1168l-109.568 28.672h-2.2528l111.8208-29.2864v0.6144zM692.0192 423.7312l-107.3152 28.0576h-2.2528l109.568-28.672v0.6144z" fill="#FEFDFE" /><path d="M692.0192 424.3456l-105.0624 27.4432h-2.2528l107.3152-28.0576v0.6144z" fill="#FEFEFE" /><path d="M692.0192 424.96l-102.8096 26.8288h-2.2528l105.0624-27.4432v0.6144z" fill="#FEFEFE" /><path d="M692.0192 425.3696l-100.5568 26.4192h-2.2528l102.8096-26.8288v0.4096zM692.0192 425.984l-98.5088 25.8048h-2.048l100.5568-26.4192v0.6144z" fill="#FEFEFF" /><path d="M692.0192 426.5984l-96.256 25.1904h-2.2528l98.5088-25.8048v0.6144z" fill="#FEFEFF" /><path d="M692.0192 427.2128l-94.0032 24.576h-2.2528l96.256-25.1904v0.6144zM692.0192 427.8272l-91.7504 23.9616h-2.2528l94.0032-24.576v0.6144z" fill="#FFFEFF" /><path d="M692.0192 428.4416l-89.4976 23.3472h-2.2528l91.7504-23.9616v0.6144z" fill="#FFFEFF" /><path d="M692.0192 429.056l-87.2448 22.7328h-2.2528l89.4976-23.3472v0.6144z" fill="#FFFFFF" /><path d="M692.0192 429.4656l-84.992 22.3232h-2.2528l87.2448-22.7328v0.4096z" fill="#FFFFFF" /><path d="M692.0192 430.08l-82.7392 21.7088h-2.2528l84.992-22.3232V430.08zM692.0192 430.6944l-80.4864 21.0944h-2.2528L692.0192 430.08v0.6144z" fill="#FFFFFF" /><path d="M692.0192 431.3088l-78.4384 20.48h-2.048l80.4864-21.0944v0.6144z" fill="#FFFFFF" /><path d="M692.0192 431.9232l-76.1856 19.8656h-2.2528l78.4384-20.48v0.6144zM692.0192 432.5376l-73.9328 19.2512h-2.2528l76.1856-19.8656v0.6144z" fill="#FFFFFF" /><path d="M692.0192 432.9472l-71.68 18.8416h-2.2528l73.9328-19.2512v0.4096z" fill="#FFFFFF" /><path d="M692.0192 433.5616l-69.4272 18.2272h-2.2528l71.68-18.8416v0.6144z" fill="#FFFFFF" /><path d="M692.0192 434.176l-67.1744 17.6128h-2.2528l69.4272-18.2272v0.6144z" fill="#FFFFFF" /><path d="M692.0192 434.7904l-64.9216 16.9984h-2.2528l67.1744-17.6128v0.6144zM692.0192 435.4048l-62.6688 16.384h-2.2528l64.9216-16.9984v0.6144z" fill="#FFFFFF" /><path d="M692.0192 436.0192l-60.416 15.7696h-2.2528l62.6688-16.384v0.6144z" fill="#FFFFFF" /><path d="M692.0192 436.6336l-58.368 15.1552h-2.048l60.416-15.7696v0.6144z" fill="#FFFFFF" /><path d="M692.0192 437.0432l-56.1152 14.7456h-2.2528l58.368-15.1552v0.4096zM692.0192 437.6576l-53.8624 14.1312h-2.2528l56.1152-14.7456v0.6144z" fill="#FFFFFF" /><path d="M692.0192 438.272l-51.6096 13.5168h-2.2528l53.8624-14.1312v0.6144z" fill="#FFFFFF" /><path d="M692.0192 438.8864l-49.3568 12.9024h-2.2528l51.6096-13.5168v0.6144zM692.0192 439.5008l-47.104 12.288h-2.2528l49.3568-12.9024v0.6144z" fill="#FFFFFF" /><path d="M692.0192 440.1152l-44.8512 11.6736h-2.2528l47.104-12.288v0.6144zM692.0192 440.7296l-42.5984 11.0592h-2.2528l44.8512-11.6736v0.6144z" fill="#FFFFFF" /><path d="M692.0192 441.1392l-40.3456 10.6496h-2.2528l42.5984-11.0592v0.4096z" fill="#FFFFFF" /><path d="M692.0192 441.7536l-38.2976 10.0352h-2.048l40.3456-10.6496v0.6144zM692.0192 442.368l-36.0448 9.4208h-2.2528l38.2976-10.0352v0.6144z" fill="#FFFFFF" /><path d="M692.0192 442.9824l-33.792 8.8064h-2.2528l36.0448-9.4208v0.6144z" fill="#FFFFFF" /><path d="M692.0192 443.5968l-31.5392 8.192h-2.2528l33.792-8.8064v0.6144zM692.0192 444.2112l-29.2864 7.5776h-2.2528l31.5392-8.192v0.6144z" fill="#FFFFFF" /><path d="M692.0192 444.6208l-27.0336 7.168h-2.2528l29.2864-7.5776v0.4096z" fill="#FFFFFF" /><path d="M692.0192 445.2352l-24.7808 6.5536h-2.2528l27.0336-7.168v0.6144z" fill="#FFFFFF" /><path d="M692.0192 445.8496l-22.528 5.9392h-2.2528l24.7808-6.5536v0.6144zM692.0192 446.464l-20.48 5.3248h-2.048l22.528-5.9392v0.6144z" fill="#FFFFFF" /><path d="M692.0192 447.0784l-18.2272 4.7104h-2.2528l20.48-5.3248v0.6144z" fill="#FFFFFF" /><path d="M692.0192 447.6928l-15.9744 4.096h-2.2528l18.2272-4.7104v0.6144zM692.0192 448.3072l-13.7216 3.4816h-2.2528l15.9744-4.096v0.6144z" fill="#FFFFFF" /><path d="M692.0192 448.7168l-11.4688 3.072h-2.2528l13.7216-3.4816v0.4096zM692.0192 449.3312l-9.216 2.4576h-2.2528l11.4688-3.072v0.6144z" fill="#FFFFFF" /><path d="M682.8032 451.7888l9.216-2.4576v2.4576h-9.216z" fill="#FFFFFF" /><path d="M616.6528 456.704a67.7888 67.7888 0 0 1-31.5392-6.144 31.3344 31.3344 0 0 1-16.7936-20.48 31.9488 31.9488 0 0 1 5.12-25.6 91.136 91.136 0 0 1 61.44-32.768c32.3584-4.9152 59.5968 5.7344 64.512 25.3952s-13.5168 41.984-44.4416 53.0432a111.0016 111.0016 0 0 1-38.2976 6.5536z m32.9728-65.7408a96.0512 96.0512 0 0 0-12.6976 1.024 71.8848 71.8848 0 0 0-46.2848 23.7568 12.0832 12.0832 0 0 0-2.4576 9.216 11.8784 11.8784 0 0 0 6.5536 6.9632 72.9088 72.9088 0 0 0 52.224-1.8432c22.9376-8.192 33.3824-22.1184 31.744-28.672s-12.0832-10.4448-29.0816-10.4448z" fill="#A67C52" /><path d="M1004.544 87.2448a46.08 46.08 0 0 0-64.1024-8.8064l-222.0032 180.8384a197.8368 197.8368 0 0 0-93.3888-21.504c-74.9568 0-135.7824 20.48-135.7824 63.8976s61.44 78.0288 135.7824 78.0288a171.8272 171.8272 0 0 0 116.9408-38.5024l253.5424-190.2592a45.2608 45.2608 0 0 0 9.0112-63.6928z" fill="#FBE8A2" /><path d="M625.0496 389.12c-81.92 0-146.0224-38.7072-146.0224-88.2688 0-45.6704 55.9104-74.1376 146.0224-74.1376a214.4256 214.4256 0 0 1 91.9552 20.48l217.088-176.5376a56.32 56.32 0 0 1 78.6432 11.264A54.6816 54.6816 0 0 1 1024 122.88a55.5008 55.5008 0 0 1-20.48 36.864l-255.3856 189.6448A180.4288 180.4288 0 0 1 625.0496 389.12z m0-141.9264c-76.3904 0-125.5424 20.48-125.5424 53.6576 0 36.6592 57.344 67.7888 125.5424 67.7888a163.84 163.84 0 0 0 109.7728-35.6352L989.5936 143.36A35.2256 35.2256 0 0 0 1003.52 119.3984a34.2016 34.2016 0 0 0-6.7584-26.0096 35.4304 35.4304 0 0 0-49.7664-6.7584l-227.1232 184.32-5.9392-3.2768a187.392 187.392 0 0 0-88.8832-19.6608z" fill="#A67C52" /></svg>