<?xml version="1.0" standalone="no"?><!DOCTYPE svg PUBLIC "-//W3C//DTD SVG 1.1//EN" "http://www.w3.org/Graphics/SVG/1.1/DTD/svg11.dtd"><svg class="icon" width="200px" height="200.00px" viewBox="0 0 1024 1024" version="1.1" xmlns="http://www.w3.org/2000/svg"><path d="M513.044898 909.061224c-6.791837 0-13.061224-3.134694-17.763265-7.836734-2.612245-3.134694-63.738776-72.620408-125.387755-170.840817-36.571429-57.991837-65.828571-113.371429-86.726531-165.616326-26.644898-66.35102-40.228571-126.955102-40.228571-180.244898 0-72.097959 28.212245-139.493878 78.889795-190.171429S440.42449 114.938776 512 114.938776s139.493878 28.212245 190.171429 78.889795 78.889796 118.595918 78.889795 190.171429c0 53.289796-13.583673 114.416327-39.706122 180.244898-20.897959 52.244898-49.632653 107.62449-86.204082 165.616326-61.64898 98.220408-122.253061 167.706122-124.865306 170.318368-4.179592 5.746939-10.44898 8.881633-17.240816 8.881632z" fill="#16C4AF" /><path d="M512 510.955102c-67.395918 0-121.730612-54.857143-121.730612-121.730612S444.604082 267.493878 512 267.493878s121.730612 54.857143 121.730612 121.730612S579.395918 510.955102 512 510.955102z" fill="#0B9682" /></svg>