<?xml version="1.0" standalone="no"?><!DOCTYPE svg PUBLIC "-//W3C//DTD SVG 1.1//EN" "http://www.w3.org/Graphics/SVG/1.1/DTD/svg11.dtd"><svg class="icon" width="200px" height="200.00px" viewBox="0 0 1024 1024" version="1.1" xmlns="http://www.w3.org/2000/svg"><path d="M718.592 693.4016H231.936c-22.6304 0-40.96-18.3296-40.96-40.96V308.1728c0-22.6304 18.3296-40.96 40.96-40.96h486.656c22.6304 0 40.96 18.3296 40.96 40.96v344.32c0 22.5792-18.3296 40.9088-40.96 40.9088z" fill="#E7F0F9" /><path d="M636.416 267.2128s50.9952 4.2496 50.9952 59.1872v317.6448s3.2768 49.408-62.1056 49.408c62.1056 0 108.288 6.7072 108.288-40.96V301.1584s0.8704-44.7488-97.1776-33.9456z" fill="#C7DDEF" /><path d="M246.4768 845.6704l-34.4576 69.888c-8.8064 17.8176 0 39.3216 18.7904 45.8752 11.9808 4.1472 25.2416 1.1264 34.2528-7.7824l108.3904-107.9296h-126.976z" fill="#EEC130" /><path d="M293.4784 850.9952c-5.5808 4.2496-79.6672 96.5632-79.6672 96.5632s5.7344 9.6768 12.5952 12.544c41.9328-35.84 111.5136-105.1648 111.5136-105.1648l-44.4416-3.9424z" fill="#D8A821" /><path d="M213.504 973.4656c-4.7616 0-9.5232-0.768-14.1312-2.3552a43.42784 43.42784 0 0 1-25.856-24.4736c-4.7104-11.4688-4.2496-24.4736 1.2288-35.584l34.4576-69.8368a10.2912 10.2912 0 0 1 9.1648-5.7344h126.976c4.1472 0 7.8848 2.5088 9.472 6.3488 1.5872 3.84 0.7168 8.2432-2.2528 11.1616l-108.3904 107.9296a43.83744 43.83744 0 0 1-30.6688 12.544z m11.2128-117.5552l-31.6416 64.1536a22.7072 22.7072 0 0 0-0.6656 18.7904c2.4576 6.0416 7.424 10.752 13.6192 12.9024 8.192 2.8672 17.5104 0.7168 23.6544-5.376l90.8288-90.4704H224.7168z" fill="#010101" /><path d="M854.784 845.6704l34.4576 69.888c8.8064 17.8176 0 39.3216-18.7904 45.8752a33.2288 33.2288 0 0 1-34.2528-7.7824l-108.3904-107.9296h126.976z" fill="#EEC130" /><path d="M787.5584 853.1968l51.712 71.8336s9.4208 8.704 5.888 20.8384c9.5744-11.52 5.632-29.9008 2.9184-35.5328-2.7136-5.632-34.304-59.3408-34.304-59.3408l-26.2144 2.2016z" fill="#D8A821" /><path d="M823.808 973.4656c-11.3152 0-22.4768-4.4032-30.72-12.5952l-108.3904-107.9296c-2.9184-2.9184-3.84-7.3216-2.2528-11.1616 1.5872-3.84 5.3248-6.3488 9.472-6.3488h126.976c3.8912 0 7.4752 2.2016 9.1648 5.7344l34.4576 69.888a43.27936 43.27936 0 0 1-24.6272 60.0576c-4.5568 1.536-9.3184 2.3552-14.08 2.3552z m-107.0592-117.5552l90.8288 90.4704a22.9376 22.9376 0 0 0 23.6544 5.376 22.7584 22.7584 0 0 0 13.6192-12.9024c2.4576-6.0416 2.2528-12.9024-0.6656-18.7904l-31.6416-64.1536h-95.7952z" fill="#010101" /><path d="M420.1472 193.9968L358.7584 92.2624a20.6592 20.6592 0 0 1 7.8336-28.8256 20.62336 20.62336 0 0 1 27.4944 7.424L469.1456 194.048h-48.9984z" fill="#F7D53A" /><path d="M451.2256 206.1824h-48.9984c-3.584 0-6.912-1.8944-8.7552-4.9664l-61.44-101.7344a30.73536 30.73536 0 0 1-3.3792-24.064 30.57664 30.57664 0 0 1 15.0528-19.0464 30.89408 30.89408 0 0 1 41.1648 11.0592l75.0592 123.1872a10.24 10.24 0 0 1 0.2048 10.3424c-1.792 3.2256-5.2224 5.2224-8.9088 5.2224z m-43.264-20.48h24.9856l-65.536-107.6224c-2.9184-4.7104-9.0112-6.4-13.8752-3.7376-2.5088 1.3824-4.352 3.6352-5.0688 6.4512-0.768 2.7648-0.3584 5.632 1.1264 8.0896l58.368 96.8192z" fill="#010101" /><path d="M614.2464 195.9424l61.3888-101.7344c6.0928-10.0864 2.5088-23.1936-7.8336-28.8256a20.62336 20.62336 0 0 0-27.4944 7.424L565.248 195.9424h48.9984z" fill="#F7D53A" /><path d="M593.7664 206.1824h-49.0496c-3.6864 0-7.1168-1.9968-8.9088-5.2224a10.24 10.24 0 0 1 0.2048-10.3424l75.0592-123.1872a30.89408 30.89408 0 0 1 41.1648-11.0592c7.4752 4.0448 12.8512 10.8544 15.0528 19.0464 2.2528 8.2432 1.024 16.7424-3.3792 24.064L602.5216 201.216c-1.8432 3.1232-5.1712 4.9664-8.7552 4.9664z m-30.7712-20.48h25.0368l58.4192-96.8192c1.4848-2.4576 1.8944-5.3248 1.1264-8.0896s-2.56-5.0688-5.0688-6.4512c-4.9152-2.6624-11.008-1.024-13.8752 3.7376l-65.6384 107.6224z" fill="#010101" /><path d="M871.3728 195.9424H215.3472c-56.576 0-102.4 45.824-102.4 102.4v444.8768c0 56.576 45.824 102.4 102.4 102.4h656.0256c56.576 0 102.4-45.824 102.4-102.4V298.3424c0-56.5248-45.824-102.4-102.4-102.4z m-253.184 586.2912H174.3872c-9.0112 0-16.3328-7.3216-16.3328-16.3328s7.3216-16.3328 16.3328-16.3328h443.8016c9.0112 0 16.3328 7.3216 16.3328 16.3328s-7.2704 16.3328-16.3328 16.3328z m115.4048-129.792c0 22.6304-18.3296 40.96-40.96 40.96h-493.568c-22.6304 0-40.96-18.3296-40.96-40.96V308.1728c0-22.6304 18.3296-40.96 40.96-40.96h493.568c22.6304 0 40.96 18.3296 40.96 40.96v344.2688z m114.0736 129.792H754.176c-9.0112 0-16.3328-7.3216-16.3328-16.3328s7.3216-16.3328 16.3328-16.3328h93.5424c9.0112 0 16.3328 7.3216 16.3328 16.3328s-7.3216 16.3328-16.384 16.3328z" fill="#FF7D5F" /><path d="M733.5936 195.9424s130.4576 26.8288 130.4576 94.464v475.4944s-7.2192 79.7184-89.6512 79.7184c78.08 0 153.344-3.84 153.344-102.4s-1.2288-460.9024-1.2288-460.9024 9.5744-106.1376-192.9216-86.3744z" fill="#FF6A41" /><path d="M825.2928 855.9104H169.2672c-62.1056 0-112.64-50.5344-112.64-112.64v-227.9936c0-5.632 4.608-10.24 10.24-10.24s10.24 4.608 10.24 10.24v227.9936c0 50.7904 41.3696 92.16 92.16 92.16h656.0256c50.7904 0 92.16-41.3696 92.16-92.16v-444.928c0-50.7904-41.3696-92.16-92.16-92.16H169.2672c-50.7904 0-92.16 41.3696-92.16 92.16v15.9232c0 5.632-4.608 10.24-10.24 10.24s-10.24-4.608-10.24-10.24v-15.9232c0-62.1056 50.5344-112.64 112.64-112.64h656.0256c62.1056 0 112.64 50.5344 112.64 112.64v444.8768c0 62.1568-50.5344 112.6912-112.64 112.6912z" fill="#010101" /><path d="M66.8672 460.2368c-5.632 0-10.24-4.608-10.24-10.24V404.48c0-5.632 4.608-10.24 10.24-10.24s10.24 4.608 10.24 10.24v45.568c0 5.632-4.5568 10.1888-10.24 10.1888zM692.6336 703.6416h-493.568c-28.2112 0-51.2-22.9888-51.2-51.2V308.1728c0-28.2112 22.9888-51.2 51.2-51.2h493.568c28.2112 0 51.2 22.9888 51.2 51.2v344.32c0 28.2112-22.9888 51.1488-51.2 51.1488zM199.0144 277.4528c-16.9472 0-30.72 13.7728-30.72 30.72v344.32c0 16.9472 13.7728 30.72 30.72 30.72h493.568c16.9472 0 30.72-13.7728 30.72-30.72V308.1728c0-16.9472-13.7728-30.72-30.72-30.72h-493.568z" fill="#010101" /><path d="M832.1536 561.3568m-46.08 0a46.08 46.08 0 1 0 92.16 0 46.08 46.08 0 1 0-92.16 0Z" fill="#F2B53D" /><path d="M786.0736 561.3568a37.0688 35.7888 90 1 0 71.5776 0 37.0688 35.7888 90 1 0-71.5776 0Z" fill="#FFE783" /><path d="M832.1536 617.6768c-31.0784 0-56.32-25.2416-56.32-56.32s25.2416-56.32 56.32-56.32 56.32 25.2416 56.32 56.32-25.2416 56.32-56.32 56.32z m0-92.16c-19.7632 0-35.84 16.0768-35.84 35.84s16.0768 35.84 35.84 35.84 35.84-16.0768 35.84-35.84-16.0768-35.84-35.84-35.84z" fill="#010101" /><path d="M832.1536 378.88m-46.08 0a46.08 46.08 0 1 0 92.16 0 46.08 46.08 0 1 0-92.16 0Z" fill="#F2B53D" /><path d="M786.0736 378.88a37.0688 35.7888 90 1 0 71.5776 0 37.0688 35.7888 90 1 0-71.5776 0Z" fill="#FFE783" /><path d="M832.1536 435.2c-31.0784 0-56.32-25.2416-56.32-56.32s25.2416-56.32 56.32-56.32 56.32 25.2416 56.32 56.32-25.2416 56.32-56.32 56.32z m0-92.16c-19.7632 0-35.84 16.0768-35.84 35.84s16.0768 35.84 35.84 35.84 35.84-16.0768 35.84-35.84-16.0768-35.84-35.84-35.84z" fill="#010101" /><path d="M618.1888 782.2336H227.8912c-9.0112 0-16.3328-7.3216-16.3328-16.3328s7.3216-16.3328 16.3328-16.3328h390.2976c9.0112 0 16.3328 7.3216 16.3328 16.3328a16.2816 16.2816 0 0 1-16.3328 16.3328z" fill="#F7D53A" /><path d="M618.1888 792.4736H174.3872c-14.6432 0-26.5728-11.9296-26.5728-26.5728s11.9296-26.5728 26.5728-26.5728h443.8016c14.6432 0 26.5728 11.9296 26.5728 26.5728s-11.8784 26.5728-26.5728 26.5728z m-443.8016-32.6656c-3.3792 0-6.0928 2.7136-6.0928 6.0928s2.7648 6.0928 6.0928 6.0928h443.8016c3.3792 0 6.0928-2.7136 6.0928-6.0928s-2.7136-6.0928-6.0928-6.0928H174.3872z" fill="#010101" /><path d="M847.6672 782.2336h-60.928c-9.0112 0-16.3328-7.3216-16.3328-16.3328s7.3216-16.3328 16.3328-16.3328h60.928c9.0112 0 16.3328 7.3216 16.3328 16.3328a16.2816 16.2816 0 0 1-16.3328 16.3328z" fill="#F7D53A" /><path d="M847.6672 792.4736H754.176c-14.6432 0-26.5728-11.9296-26.5728-26.5728s11.9296-26.5728 26.5728-26.5728h93.5424c14.6432 0 26.5728 11.9296 26.5728 26.5728s-11.9296 26.5728-26.624 26.5728z m-93.4912-32.6656c-3.3792 0-6.0928 2.7136-6.0928 6.0928s2.7136 6.0928 6.0928 6.0928h93.5424c3.3792 0 6.0928-2.7136 6.0928-6.0928s-2.7136-6.0928-6.0928-6.0928H754.176z" fill="#010101" /><path d="M686.848 765.9008m-22.2208 0a22.2208 22.2208 0 1 0 44.4416 0 22.2208 22.2208 0 1 0-44.4416 0Z" fill="#EEC130" /><path d="M686.848 798.3616c-17.92 0-32.4608-14.5408-32.4608-32.4608s14.5408-32.4608 32.4608-32.4608 32.4608 14.5408 32.4608 32.4608-14.5408 32.4608-32.4608 32.4608z m0-44.4416c-6.6048 0-11.9808 5.376-11.9808 11.9808 0 6.6048 5.376 11.9808 11.9808 11.9808 6.6048 0 11.9808-5.376 11.9808-11.9808 0-6.6048-5.376-11.9808-11.9808-11.9808z" fill="#010101" /><path d="M305.4592 531.0464a10.26048 10.26048 0 0 1-7.2192-17.5104l142.4896-142.4896c3.9936-3.9936 10.496-3.9936 14.4896 0s3.9936 10.496 0 14.4896l-142.4896 142.4896c-2.048 1.9968-4.6592 3.0208-7.2704 3.0208zM349.2352 608.8192c-2.6112 0-5.2736-1.024-7.2704-3.0208-3.9936-3.9936-3.9424-10.496 0.0512-14.4896l195.4816-194.1504c3.9936-3.9936 10.496-3.9424 14.4896 0.0512 3.9936 3.9936 3.9424 10.496-0.0512 14.4896l-195.4816 194.1504c-1.9968 1.9968-4.608 2.9696-7.2192 2.9696zM471.808 604.928a10.26048 10.26048 0 0 1-7.2704-17.5104l108.8-108.5952c3.9936-3.9936 10.496-3.9936 14.4896 0s3.9936 10.496 0 14.4896l-108.8 108.5952c-1.9968 1.9968-4.608 3.0208-7.2192 3.0208zM349.2352 240.4352h-33.792c-5.632 0-10.24-4.608-10.24-10.24s4.608-10.24 10.24-10.24h33.792a10.24 10.24 0 1 1 0 20.48zM128.2048 309.0432c-5.632 0-10.24-4.608-10.24-10.24v-6.656c0-39.8336 32.4096-72.2432 72.2432-72.2432h79.872c5.632 0 10.24 4.608 10.24 10.24s-4.608 10.24-10.24 10.24h-79.872c-28.5184 0-51.7632 23.1936-51.7632 51.7632v6.656c0 5.6832-4.5568 10.24-10.24 10.24z" fill="#FFFFFF" /></svg>