<?xml version="1.0" standalone="no"?><!DOCTYPE svg PUBLIC "-//W3C//DTD SVG 1.1//EN" "http://www.w3.org/Graphics/SVG/1.1/DTD/svg11.dtd"><svg class="icon" width="200px" height="200.00px" viewBox="0 0 1024 1024" version="1.1" xmlns="http://www.w3.org/2000/svg"><path d="M470.172623 293.768193a26.255793 26.255793 0 0 1-23.630214-15.31588s-7.876738-18.379055-15.315879-38.946093A144.406862 144.406862 0 0 1 415.910651 175.179527a25.3806 25.3806 0 0 1 28.006179-22.755021 24.943003 24.943003 0 0 1 22.755021 27.568583A400.838442 400.838442 0 0 0 495.99082 257.447679a25.818197 25.818197 0 0 1-13.127897 34.132531 22.755021 22.755021 0 0 1-10.502317 0z m64.326693 15.315879a25.818197 25.818197 0 0 1-17.503862-43.759655 196.043255 196.043255 0 0 0 22.755021-65.639483c8.314334-29.756566 14.00309-56.887552 14.00309-57.325148a25.818197 25.818197 0 0 1 50.323603 10.502317s-6.563948 30.631759-15.315879 62.576307c-17.066266 62.13871-28.881372 79.204976-38.508497 87.51931a27.130986 27.130986 0 0 1-17.066265 6.126352z" fill="#8a8a8a" /><path d="M677.155792 364.658834l-27.130986-43.759655a422.280673 422.280673 0 0 0 142.656476-196.918449 59.075535 59.075535 0 0 0-10.06472-52.511586 70.890641 70.890641 0 0 0-62.576307-13.127896 69.140255 69.140255 0 0 0-46.385235 30.631758 100.647207 100.647207 0 0 1-30.631759 26.69339 60.388324 60.388324 0 0 1-53.824376-2.187983 103.710383 103.710383 0 0 1-34.132531-29.756565 68.702659 68.702659 0 0 0-63.4515-31.944549c-14.878283 0-26.69339 11.37751-43.759655 30.194162a97.584031 97.584031 0 0 1-98.459224 43.759656 340.887714 340.887714 0 0 1-35.007724-12.252704 198.668835 198.668835 0 0 0-56.012359-17.066265 24.06781 24.06781 0 0 0-26.255793 17.066265 67.827466 67.827466 0 0 0 5.688755 56.887552 268.684283 268.684283 0 0 0 54.261973 69.140255 696.216115 696.216115 0 0 0 95.833644 76.1418l-27.130986 43.759655a689.652166 689.652166 0 0 1-104.585576-82.705748 313.319131 313.319131 0 0 1-64.326693-83.580941 115.087893 115.087893 0 0 1-7.439141-101.959997A73.078624 73.078624 0 0 1 259.688682 43.900561a229.73819 229.73819 0 0 1 73.078624 20.567038 229.73819 229.73819 0 0 0 28.443776 10.064721c16.191072 4.375966 26.69339-4.813562 48.135621-27.568583A114.2127 114.2127 0 0 1 491.614854 0.140906a118.588666 118.588666 0 0 1 102.83519 50.323604 69.577852 69.577852 0 0 0 16.628669 16.191072c3.500772 0 7.876738 3.063176 9.189528 2.187983a68.702659 68.702659 0 0 0 14.003089-14.00309A122.964631 122.964631 0 0 1 712.163517 7.142451a121.214245 121.214245 0 0 1 107.648751 28.443776A108.523945 108.523945 0 0 1 843.004886 131.419872a463.852345 463.852345 0 0 1-165.849094 231.488576z" fill="#8a8a8a" /><path d="M502.992365 278.452313a329.9478 329.9478 0 0 0-152.2836 36.758111 411.340759 411.340759 0 0 0-122.964632 98.89682 680.025042 680.025042 0 0 0-145.719652 311.568746 192.104886 192.104886 0 0 0 31.506952 168.474672 300.628831 300.628831 0 0 0 161.910725 87.519311 972.777136 972.777136 0 0 0 234.114155 24.06781 966.213187 966.213187 0 0 0 232.801366-24.06781 302.379218 302.379218 0 0 0 162.348321-87.519311 196.480852 196.480852 0 0 0 36.320513-169.787462 623.13749 623.13749 0 0 0-146.594845-310.693552 387.272949 387.272949 0 0 0-291.439303-135.654931z" fill="#FABD00" /><path d="M509.556313 1023.679242a1002.971298 1002.971298 0 0 1-238.052524-24.505407A311.568745 311.568745 0 0 1 102.153923 905.090576a206.107976 206.107976 0 0 1-37.195707-182.915359 700.154484 700.154484 0 0 1 149.658021-319.883079A428.844621 428.844621 0 0 1 342.832027 299.456948 352.702821 352.702821 0 0 1 502.992365 262.698837a406.0896 406.0896 0 0 1 306.317586 141.343687 642.829335 642.829335 0 0 1 150.533214 319.445483 214.859907 214.859907 0 0 1-39.821286 184.228148 318.57029 318.57029 0 0 1-171.975445 93.208066 996.407349 996.407349 0 0 1-238.490121 22.755021z m-6.563948-727.723067a317.2575 317.2575 0 0 0-143.969266 34.570128 393.836897 393.836897 0 0 0-118.151069 94.958452 666.021952 666.021952 0 0 0-141.781283 303.254411 175.038621 175.038621 0 0 0 28.006179 154.471582 279.624197 279.624197 0 0 0 152.721197 81.830556 958.336449 958.336449 0 0 0 229.73819 23.630214 974.089925 974.089925 0 0 0 228.4254-23.192618A289.251321 289.251321 0 0 0 889.827717 883.210748a180.727376 180.727376 0 0 0 31.944548-155.346776 607.821611 607.821611 0 0 0-141.781283-302.379217 371.081876 371.081876 0 0 0-276.998617-129.52858z" fill="#8a8a8a" /><path d="M657.901544 733.990324h-113.337507v-65.201886h113.337507a29.756566 29.756566 0 0 0 0-59.513131h-87.51931L673.217424 481.497114a29.756566 29.756566 0 0 0-45.947638-37.633304l-109.836735 135.654931-123.402228-136.967721a29.756566 29.756566 0 0 0-43.759655 39.821287l114.2127 126.903H364.711854a29.756566 29.756566 0 0 0 0 59.513131h120.339052v65.201886H364.711854a29.756566 29.756566 0 0 0 0 59.513131h120.339052V875.334011a29.756566 29.756566 0 0 0 59.513131 0v-81.830556h113.337507a29.756566 29.756566 0 1 0 0-59.513131z" fill="#DB8905" /></svg>