<?xml version="1.0" standalone="no"?><!DOCTYPE svg PUBLIC "-//W3C//DTD SVG 1.1//EN" "http://www.w3.org/Graphics/SVG/1.1/DTD/svg11.dtd"><svg class="icon" width="200px" height="200.00px" viewBox="0 0 1024 1024" version="1.1" xmlns="http://www.w3.org/2000/svg"><path d="M512 512m-512 0a512 512 0 1 0 1024 0 512 512 0 1 0-1024 0Z" fill="#FFDA00" /><path d="M802.133333 396.8c-12.8-12.8-34.133333-12.8-46.933333 0L516.266667 640 268.8 396.8c-12.8-12.8-34.133333-8.533333-42.666667 0-12.8 12.8-12.8 34.133333 0 46.933333l268.8 268.8c4.266667 4.266667 12.8 8.533333 21.333334 8.533334s17.066667-4.266667 25.6-8.533334l260.266666-268.8c12.8-12.8 12.8-34.133333 0-46.933333z" fill="#111111" /></svg>