<?xml version="1.0" standalone="no"?><!DOCTYPE svg PUBLIC "-//W3C//DTD SVG 1.1//EN" "http://www.w3.org/Graphics/SVG/1.1/DTD/svg11.dtd"><svg class="icon" width="200px" height="200.00px" viewBox="0 0 1024 1024" version="1.1" xmlns="http://www.w3.org/2000/svg"><path d="M769.536 609.792L410.624 419.84l180.736-342.016c5.12-9.728 16.896-13.312 26.112-8.192l325.12 171.52c9.728 5.12 13.312 16.896 8.192 26.112l-181.248 342.528z" fill="#FFB87D" /><path d="M777.728 635.392L385.024 427.52l185.856-351.744c5.632-10.752 15.36-18.944 27.136-22.528 11.776-3.584 24.576-2.56 35.328 3.072l310.784 164.352c22.528 11.776 31.232 39.936 19.456 62.976l-185.856 351.744zM436.224 412.16l325.632 172.032 167.936-318.464c2.048-4.096 0.512-9.216-3.584-11.776l-310.784-164.352c-2.56-1.536-5.12-1.024-6.656-0.512-1.024 0.512-3.584 1.536-5.12 4.096L436.224 412.16z" fill="#6147B2" /><path d="M753.664 488.96L510.464 360.448l108.544-205.312c4.608-9.216 15.872-12.288 25.088-7.68l209.92 111.104c9.216 4.608 12.288 15.872 7.68 25.088l-108.032 205.312z" fill="#6ED7FF" /><path d="M761.344 514.56L484.864 368.64l113.664-215.04c11.776-22.016 38.912-30.72 60.928-18.944l196.608 103.936c10.752 5.632 18.432 15.36 22.016 26.624 3.584 11.776 2.56 23.552-3.072 34.304l-113.664 215.04z m-225.28-162.304l209.408 110.592L841.728 281.6c1.024-2.56 1.024-4.608 0.512-5.632-0.512-1.024-1.024-3.072-3.584-4.096l-196.608-103.936c-3.584-2.048-8.192-0.512-9.728 3.072l-96.256 181.248z" fill="#6147B2" /><path d="M706.048 296.96m-44.032 0a44.032 44.032 0 1 0 88.064 0 44.032 44.032 0 1 0-88.064 0Z" fill="#4CC8E5" /><path d="M651.776 324.608s-60.928-7.168-82.944 14.336c-21.504 21.504-25.088 34.304-25.088 34.304l194.048 91.648s26.112-54.784-26.112-110.592l-59.904-29.696z" fill="#4CC8E5" /><path d="M215.552 390.144H84.48c-5.632 0-10.752-4.608-10.752-10.752v-37.888c0-5.632 4.608-10.752 10.752-10.752h131.072c5.632 0 10.752 4.608 10.752 10.752v37.888c-0.512 6.144-5.12 10.752-10.752 10.752z" fill="#FFB87D" /><path d="M210.944 409.088H89.088c-18.432 0-33.792-15.36-33.792-33.792v-29.184c0-18.432 15.36-33.792 33.792-33.792h121.856c18.432 0 33.792 15.36 33.792 33.792v29.184c0 18.432-15.36 33.792-33.792 33.792z m-117.76-37.888h114.176v-20.992H93.184v20.992z" fill="#6147B2" /><path d="M301.568 390.144H266.24c-3.072 0-5.632-2.56-5.632-5.632v-47.616c0-3.072 2.56-5.632 5.632-5.632h35.328c3.072 0 5.632 2.56 5.632 5.632v47.616c0 3.072-2.56 5.632-5.632 5.632z" fill="#FFB87D" /><path d="M299.008 409.088h-30.208c-14.848 0-27.136-12.288-27.136-27.136v-42.496c0-14.848 12.288-27.136 27.136-27.136h30.208c14.848 0 27.136 12.288 27.136 27.136v42.496c0 14.848-12.288 27.136-27.136 27.136z m-19.456-37.888h9.216v-20.992h-9.216v20.992z" fill="#6147B2" /><path d="M342.016 384v28.672c0 7.68-6.144 13.824-13.312 13.824H91.136c-7.168 0-13.312 6.144-13.312 13.824v499.2c0 7.68 6.144 13.824 13.312 13.824h832.512c7.168 0 13.312-6.144 13.312-13.824V384c0-7.68-6.144-13.824-13.312-13.824h-568.32c-7.168 0-13.312 6.144-13.312 13.824z" fill="#FF52A1" /><path d="M924.16 972.8H91.136c-17.92 0-32.256-14.848-32.256-32.768V440.832c0-17.92 14.336-32.768 32.256-32.768h231.936V384c0-17.92 14.336-32.768 32.256-32.768h568.832c17.92 0 32.256 14.848 32.256 32.768v555.52c-0.512 18.432-14.848 33.28-32.256 33.28zM97.28 934.912h821.248V389.12H360.96v23.552c0 17.92-14.336 32.768-32.256 32.768H97.28v489.472z" fill="#6147B2" /><path d="M77.824 553.984H936.96v260.608H77.824z" fill="#FFB87D" /><path d="M955.392 833.536H58.88v-298.496h897.024v298.496z m-858.624-37.888h821.248v-222.72H96.768v222.72z" fill="#6147B2" /><path d="M501.76 684.544m-204.288 0a204.288 204.288 0 1 0 408.576 0 204.288 204.288 0 1 0-408.576 0Z" fill="#6ED7FF" /><path d="M501.76 907.776c-123.392 0-223.232-100.352-223.232-223.232S378.88 460.8 501.76 460.8s223.232 100.352 223.232 223.232-99.84 223.744-223.232 223.744z m0-409.088c-102.4 0-185.344 83.456-185.344 185.344s83.456 185.344 185.344 185.344 185.344-83.456 185.344-185.344S604.16 498.688 501.76 498.688z" fill="#6147B2" /><path d="M347.648 684.544a154.624 153.6 90 1 0 307.2 0 154.624 153.6 90 1 0-307.2 0Z" fill="#FFB87D" /><path d="M501.248 858.112c-95.232 0-172.544-77.824-172.544-173.568s77.312-173.568 172.544-173.568 172.544 77.824 172.544 173.568-77.824 173.568-172.544 173.568z m0-309.248c-74.24 0-134.656 60.928-134.656 135.68s60.416 135.68 134.656 135.68 134.656-60.928 134.656-135.68-60.416-135.68-134.656-135.68z" fill="#6147B2" /><path d="M501.76 684.544m-70.144 0a70.144 70.144 0 1 0 140.288 0 70.144 70.144 0 1 0-140.288 0Z" fill="#FF52A1" /><path d="M501.76 773.632c-49.152 0-89.088-39.936-89.088-89.088s39.936-89.088 89.088-89.088 89.088 39.936 89.088 89.088-39.424 89.088-89.088 89.088z m0-140.8c-28.16 0-51.2 23.04-51.2 51.2s23.04 51.2 51.2 51.2 51.2-23.04 51.2-51.2-22.528-51.2-51.2-51.2z" fill="#6147B2" /><path d="M882.176 479.232h-182.784c-5.12 0-9.728-4.096-9.728-9.728V370.688h202.24v99.328c0 5.12-4.608 9.216-9.728 9.216z" fill="#FFB87D" /><path d="M878.08 498.176h-175.104c-17.92 0-32.768-14.848-32.768-32.768V351.744h240.128V465.92c0.512 17.92-14.336 32.256-32.256 32.256z m-169.472-37.888h164.352V389.632h-164.352v70.656z" fill="#6147B2" /></svg>