<?xml version="1.0" standalone="no"?><!DOCTYPE svg PUBLIC "-//W3C//DTD SVG 1.1//EN" "http://www.w3.org/Graphics/SVG/1.1/DTD/svg11.dtd"><svg class="icon" width="200px" height="200.00px" viewBox="0 0 1024 1024" version="1.1" xmlns="http://www.w3.org/2000/svg"><path fill="#8a8a8a" d="M762.965333 823.338667A467.2 467.2 0 0 1 512 896c-230.058667 0-421.461333-165.546667-461.653333-384a468.565333 468.565333 0 0 1 142.506666-258.816L59.434667 119.808l60.373333-60.373333 844.757333 844.8-60.373333 60.330666-141.226667-141.226666zM253.226667 313.6A382.506667 382.506667 0 0 0 137.514667 512a384.256 384.256 0 0 0 563.2 249.088l-86.485334-86.528A192 192 0 0 1 349.44 409.770667L253.226667 313.6z m297.770666 297.728l-138.325333-138.325333a106.666667 106.666667 0 0 0 138.24 138.24l0.085333 0.085333z m336.768 96.597333l-61.056-61.013333a381.184 381.184 0 0 0 59.733334-134.912A384.256 384.256 0 0 0 407.594667 227.754667L340.224 160.426667C393.386667 139.52 451.413333 128 512 128c230.058667 0 421.461333 165.546667 461.610667 384a467.029333 467.029333 0 0 1-85.845334 195.925333z m-387.584-387.584a192 192 0 0 1 203.477334 203.477334l-203.52-203.52z"  /></svg>