<?xml version="1.0" standalone="no"?><!DOCTYPE svg PUBLIC "-//W3C//DTD SVG 1.1//EN" "http://www.w3.org/Graphics/SVG/1.1/DTD/svg11.dtd"><svg class="icon" width="200px" height="200.00px" viewBox="0 0 1024 1024" version="1.1" xmlns="http://www.w3.org/2000/svg"><path d="M676.8 760v-64c0-17.6 14.4-32 32-32h19.2v-64c0-17.6 14.4-32 32-32h180.8c-11.2-27.2-30.4-51.2-57.6-65.6l-126.4-62.4c-24 56-104 56-128 0l-89.6 44.8c41.6 28.8 65.6 75.2 65.6 124.8v150.4h72z" fill="#64B5F6" /><path d="M819.2 240c-27.2 0-48-20.8-48-48V112c0-4.8 3.2-8 8-8 27.2 0 48 20.8 48 48v80c0 4.8-3.2 8-8 8z m-32-118.4V192c0 14.4 9.6 27.2 24 30.4V152c0-14.4-9.6-27.2-24-30.4z" fill="#37474F" /><path d="M539.2 208c-1.6 0-3.2 0-4.8-1.6-1.6-1.6-3.2-3.2-3.2-6.4V176c0-70.4 57.6-128 128-128h97.6c17.6 0 32 9.6 38.4 24 4.8 14.4 1.6 28.8-9.6 40l-1.6 1.6s0 1.6-1.6 1.6c-41.6 48-102.4 80-163.2 84.8l-80 8z m120-144c-60.8 0-112 51.2-112 112v14.4l72-6.4c57.6-4.8 113.6-33.6 152-78.4l1.6-1.6c0-1.6 1.6-1.6 1.6-1.6 6.4-6.4 9.6-14.4 6.4-22.4-3.2-8-11.2-16-24-16h-97.6z m118.4 46.4z" fill="#37474F" /><path d="M707.2 416h-32c-65.6 0-116.8-49.6-120-112-17.6-3.2-32-19.2-32-40 0-19.2 14.4-35.2 32-38.4v-27.2c0-4.8 3.2-8 8-8s8 3.2 8 8v33.6c0 4.8-3.2 8-8 8-12.8 0-24 11.2-24 24s11.2 24 24 24c4.8 0 8 3.2 8 8 0 57.6 46.4 104 104 104h32c57.6 0 104-46.4 104-104 0-4.8 3.2-8 8-8 12.8 0 24-11.2 24-24S832 240 819.2 240c-4.8 0-8-3.2-8-8s3.2-8 8-8c22.4 0 40 17.6 40 40 0 19.2-14.4 35.2-32 40-3.2 62.4-54.4 112-120 112z" fill="#37474F" /><path d="M691.2 489.6c-32 0-59.2-17.6-72-46.4V396.8c0-3.2 1.6-4.8 3.2-6.4 3.2-1.6 4.8-1.6 8 0 12.8 6.4 27.2 9.6 44.8 9.6h32c17.6 0 32-3.2 44.8-9.6 3.2-1.6 4.8-1.6 8 0s3.2 4.8 3.2 6.4V443.2c-12.8 28.8-40 46.4-72 46.4z m-56-51.2c9.6 22.4 32 35.2 56 35.2s46.4-14.4 56-35.2v-28.8c-11.2 4.8-25.6 6.4-40 6.4h-32c-14.4 0-28.8-1.6-40-6.4v28.8zM691.2 352c-30.4 0-56-25.6-56-56 0-4.8 3.2-8 8-8h96c4.8 0 8 3.2 8 8 0 32-24 56-56 56z m-38.4-48c3.2 17.6 19.2 32 40 32s35.2-12.8 40-32h-80zM124.8 416c-4.8 0-8-3.2-8-8v-272C116.8 86.4 155.2 48 204.8 48c4.8 0 8 3.2 8 8s-3.2 8-8 8c-40 0-72 32-72 72V400c28.8-3.2 52.8-24 60.8-52.8 1.6-4.8 6.4-6.4 9.6-4.8 4.8 1.6 6.4 6.4 4.8 9.6-9.6 36.8-44.8 64-83.2 64z" fill="#37474F" /><path d="M572.8 760v-150.4c0-44.8-25.6-86.4-65.6-107.2l-126.4-62.4c-24 56-104 56-128 0l-126.4 62.4c-40 20.8-65.6 62.4-65.6 107.2v150.4" fill="#FFCA28" /><path d="M572.8 768c-4.8 0-8-3.2-8-8v-150.4c0-41.6-24-80-60.8-100.8L384 451.2c-14.4 24-38.4 40-67.2 40s-54.4-14.4-67.2-40l-120 59.2c-36.8 19.2-60.8 59.2-60.8 100.8v150.4c0 4.8-3.2 8-8 8s-8-3.2-8-8v-150.4c0-48 27.2-92.8 70.4-113.6l126.4-62.4c1.6-1.6 4.8-1.6 6.4 0 1.6 0 3.2 1.6 4.8 4.8 9.6 22.4 32 36.8 56 36.8s46.4-14.4 56-36.8l4.8-4.8h6.4l126.4 62.4c43.2 22.4 70.4 67.2 70.4 113.6v150.4c0 3.2-3.2 6.4-8 6.4zM940.8 576c-3.2 0-6.4-1.6-8-4.8-11.2-27.2-30.4-49.6-56-60.8l-118.4-59.2c-14.4 24-38.4 40-67.2 40-28.8 0-54.4-14.4-67.2-40l-83.2 41.6c-3.2 1.6-8 0-11.2-3.2-1.6-3.2 0-8 3.2-11.2l89.6-44.8c1.6-1.6 4.8-1.6 6.4 0 1.6 0 3.2 1.6 4.8 4.8 9.6 22.4 32 36.8 56 36.8s46.4-14.4 56-36.8l4.8-4.8h6.4l126.4 62.4c28.8 14.4 49.6 38.4 62.4 70.4 1.6 4.8 0 8-4.8 11.2 1.6-1.6 1.6-1.6 0-1.6z" fill="#37474F" /><path d="M172.8 768c-4.8 0-8-3.2-8-8v-96c0-4.8 3.2-8 8-8s8 3.2 8 8v96c0 4.8-3.2 8-8 8zM460.8 768c-4.8 0-8-3.2-8-8v-96c0-4.8 3.2-8 8-8s8 3.2 8 8v96c0 4.8-3.2 8-8 8zM465.6 208h-6.4c-32 0-60.8-17.6-76.8-44.8l-19.2 14.4c-28.8 19.2-67.2 19.2-97.6 0l-20.8-14.4c-16 27.2-44.8 44.8-76.8 44.8h-6.4c-4.8 0-8-3.2-8-8V176c0-70.4 57.6-128 128-128h64c35.2 0 67.2 12.8 91.2 38.4 24 24 36.8 56 35.2 89.6v24c1.6 4.8-1.6 8-6.4 8z m-80-64h1.6c1.6 0 4.8 1.6 4.8 4.8l1.6 3.2c11.2 24 36.8 40 64 40v-16c0-30.4-9.6-57.6-30.4-78.4-20.8-20.8-49.6-33.6-80-33.6h-64c-60.8 0-112 51.2-112 112v16c25.6 0 49.6-16 64-40l1.6-3.2 4.8-4.8c1.6 0 4.8 0 6.4 1.6l27.2 19.2c24 16 56 16 78.4 0l27.2-19.2c1.6-1.6 3.2-1.6 4.8-1.6z" fill="#37474F" /><path d="M192 99.2c16-20.8 40-35.2 67.2-40v-3.2c0-27.2-20.8-48-48-48s-48 20.8-48 48c0 19.2 12.8 35.2 28.8 43.2z" fill="#EF5350" /><path d="M192 107.2c-1.6 0-3.2 0-3.2-1.6-20.8-9.6-33.6-28.8-33.6-49.6 0-32 24-56 56-56s56 24 56 56v3.2c0 3.2-3.2 8-6.4 8-25.6 4.8-48 17.6-62.4 36.8-1.6 1.6-3.2 3.2-6.4 3.2zM211.2 16c-22.4 0-40 17.6-40 40 0 12.8 8 25.6 19.2 33.6 16-17.6 36.8-30.4 60.8-36.8C249.6 32 233.6 16 211.2 16zM331.2 416h-32c-65.6 0-116.8-49.6-120-112-17.6-3.2-32-19.2-32-40 0-19.2 14.4-35.2 32-38.4v-25.6c0-4.8 3.2-8 8-8s8 3.2 8 8v32c0 4.8-3.2 8-8 8-12.8 0-24 11.2-24 24s11.2 24 24 24c4.8 0 8 3.2 8 8 0 57.6 46.4 104 104 104h32c57.6 0 104-46.4 104-104 0-4.8 3.2-8 8-8 12.8 0 24-11.2 24-24s-11.2-24-24-24c-4.8 0-8-3.2-8-8v-32c0-4.8 3.2-8 8-8s8 3.2 8 8v25.6c17.6 3.2 32 19.2 32 38.4s-14.4 35.2-32 40c-3.2 62.4-54.4 112-120 112z" fill="#37474F" /><path d="M315.2 489.6c-32 0-59.2-17.6-72-46.4V396.8c0-3.2 1.6-4.8 3.2-6.4s4.8-1.6 8 0c12.8 6.4 27.2 9.6 44.8 9.6h32c17.6 0 32-3.2 44.8-9.6 3.2-1.6 4.8-1.6 8 0s3.2 4.8 3.2 6.4V443.2c-12.8 28.8-40 46.4-72 46.4z m-56-51.2c9.6 22.4 32 35.2 56 35.2s46.4-14.4 56-35.2v-28.8c-11.2 4.8-25.6 6.4-40 6.4h-32c-14.4 0-28.8-1.6-40-6.4v28.8zM315.2 352c-30.4 0-56-25.6-56-56 0-4.8 3.2-8 8-8h96c4.8 0 8 3.2 8 8 0 32-24 56-56 56z m-38.4-48c3.2 17.6 19.2 32 38.4 32 20.8 0 35.2-12.8 40-32h-78.4zM976 896H48c-27.2 0-48-20.8-48-48v-16c0-27.2 20.8-48 48-48h60.8c4.8 0 8 3.2 8 8s-3.2 8-8 8H48c-17.6 0-32 14.4-32 32v16c0 17.6 14.4 32 32 32h928c17.6 0 32-14.4 32-32v-16c0-17.6-14.4-32-32-32H252.8c-4.8 0-8-3.2-8-8s3.2-8 8-8H976c27.2 0 48 20.8 48 48v16c0 27.2-20.8 48-48 48z" fill="#37474F" /><path d="M204.8 800h-48c-4.8 0-8-3.2-8-8s3.2-8 8-8h48c4.8 0 8 3.2 8 8s-3.2 8-8 8zM147.2 1024c-4.8 0-8-3.2-8-8v-96c0-4.8 3.2-8 8-8s8 3.2 8 8v96c0 4.8-3.2 8-8 8zM51.2 1024c-4.8 0-8-3.2-8-8v-96c0-4.8 3.2-8 8-8s8 3.2 8 8v96c0 4.8-3.2 8-8 8zM963.2 1024c-4.8 0-8-3.2-8-8v-96c0-4.8 3.2-8 8-8s8 3.2 8 8v96c0 4.8-3.2 8-8 8zM867.2 1024c-4.8 0-8-3.2-8-8v-96c0-4.8 3.2-8 8-8s8 3.2 8 8v96c0 4.8-3.2 8-8 8z" fill="#37474F" /><path d="M916.8 792h-208v-96h208c27.2 0 48 20.8 48 48-1.6 27.2-22.4 48-48 48z" fill="#EF5350" /><path d="M916.8 800h-208c-4.8 0-8-3.2-8-8v-96c0-4.8 3.2-8 8-8h208c32 0 56 24 56 56-1.6 32-25.6 56-56 56z m-200-16h200c20.8 0 38.4-17.6 40-40 0-22.4-17.6-40-40-40H716.8v80z" fill="#37474F" /><path d="M904 760H707.2v-32h196.8c9.6 0 16 6.4 16 16s-6.4 16-16 16z" fill="#FFFFFF" /><path d="M904 768H707.2c-4.8 0-8-3.2-8-8v-32c0-4.8 3.2-8 8-8h196.8c14.4 0 24 9.6 24 24s-9.6 24-24 24z m-188.8-16h188.8c4.8 0 8-3.2 8-8s-3.2-8-8-8H715.2v16z" fill="#37474F" /><path d="M968 696h-208v-96h208c27.2 0 48 20.8 48 48s-20.8 48-48 48z" fill="#EF5350" /><path d="M968 704h-208c-4.8 0-8-3.2-8-8v-96c0-4.8 3.2-8 8-8h208c32 0 56 24 56 56S1000 704 968 704zM768 688h200c22.4 0 40-17.6 40-40S990.4 608 968 608H768v80z" fill="#37474F" /><path d="M956.8 664H760v-32h196.8c9.6 0 16 6.4 16 16s-8 16-16 16z" fill="#FFFFFF" /><path d="M956.8 672H760c-4.8 0-8-3.2-8-8v-32c0-4.8 3.2-8 8-8h196.8c14.4 0 24 9.6 24 24 0 12.8-11.2 24-24 24zM768 656h188.8c3.2 0 8-3.2 8-8s-3.2-8-8-8H768v16z" fill="#37474F" /></svg>