<?xml version="1.0" standalone="no"?><!DOCTYPE svg PUBLIC "-//W3C//DTD SVG 1.1//EN" "http://www.w3.org/Graphics/SVG/1.1/DTD/svg11.dtd"><svg class="icon" width="200px" height="200.00px" viewBox="0 0 1024 1024" version="1.1" xmlns="http://www.w3.org/2000/svg"><path d="M34.133333 808.96c13.653333-8.533333 30.72-18.773333 46.08-20.48V68.266667C52.906667 76.8 34.133333 102.4 34.133333 133.12v675.84z" fill="#F04D4E" /><path d="M23.893333 925.013333c-13.653333 0-23.893333-8.533333-23.893333-23.893333v-768C0 68.266667 51.2 17.066667 116.053333 17.066667c13.653333 0 23.893333 8.533333 23.893334 23.893333v768c0 13.653333-8.533333 23.893333-23.893334 23.893333-39.253333 0-69.973333 30.72-69.973333 69.973334 0 11.946667-8.533333 22.186667-22.186667 22.186666zM93.866667 68.266667c-29.013333 8.533333-47.786667 34.133333-47.786667 64.853333v674.133333c13.653333-8.533333 30.72-18.773333 46.08-20.48V68.266667z" fill="#014463" /><path d="M136.533333 68.266667v721.92h535.893334c13.653333 0 23.893333-8.533333 23.893333-23.893334V92.16c0-13.653333-8.533333-23.893333-23.893333-23.893333H648.533333v139.946666c0 6.826667-5.12 17.066667-11.946666 20.48-6.826667 5.12-17.066667 5.12-23.893334 0L532.48 187.733333l-83.626667 42.666667c-6.826667 5.12-17.066667 1.706667-23.893333 0-5.12-5.12-8.533333-13.653333-8.533333-20.48V68.266667H136.533333z" fill="#D98B37" /><path d="M104.106667 981.333333h558.08c13.653333 0 23.893333-8.533333 23.893333-23.893333V836.266667c-6.826667 1.706667-13.653333 5.12-23.893333 5.12H104.106667C64.853333 841.386667 34.133333 870.4 34.133333 911.36s30.72 69.973333 69.973334 69.973333z" fill="#ECEFF9" /><path d="M58.026667 933.546667c0-39.253333 30.72-69.973333 69.973333-69.973334h558.08V836.266667c-6.826667 1.706667-13.653333 5.12-23.893333 5.12H104.106667C64.853333 841.386667 34.133333 870.4 34.133333 911.36c0 25.6 13.653333 46.08 32.426667 59.733333-5.12-11.946667-8.533333-23.893333-8.533333-37.546666z" fill="#CEDAE6" /><path d="M674.133333 17.066667h-46.08c-13.653333 0-23.893333 8.533333-23.893333 23.893333v126.293333L544.426667 136.533333c-6.826667-1.706667-13.653333-1.706667-20.48 0l-58.026667 30.72V40.96c0-13.653333-8.533333-23.893333-23.893333-23.893333H116.053333c-13.653333 0-22.186667 8.533333-22.186666 23.893333v747.52c-54.613333 10.24-93.866667 56.32-93.866667 112.64 0 64.853333 51.2 116.053333 116.053333 116.053333h558.08c39.253333 0 69.973333-30.72 69.973334-69.973333V87.04c0-39.253333-29.013333-69.973333-69.973334-69.973333zM139.946667 63.146667h279.893333v139.946666c0 6.826667 5.12 17.066667 11.946667 20.48 6.826667 5.12 17.066667 5.12 23.893333 0l81.92-42.666666 83.626667 42.666666c6.826667 5.12 17.066667 1.706667 23.893333 0 6.826667-1.706667 8.533333-13.653333 8.533333-20.48V63.146667h23.893334c13.653333 0 23.893333 8.533333 23.893333 23.893333v674.133333c0 13.653333-8.533333 23.893333-23.893333 23.893334H139.946667V63.146667z m558.08 768v23.893333c0 13.653333-8.533333 23.893333-23.893334 23.893333H116.053333c-13.653333 0-23.893333 8.533333-23.893333 23.893334 0 13.653333 8.533333 23.893333 23.893333 23.893333h558.08c8.533333 0 17.066667-1.706667 23.893334-5.12v27.306667c0 13.653333-8.533333 23.893333-23.893334 23.893333H116.053333c-39.253333 0-69.973333-30.72-69.973333-69.973333s30.72-69.973333 69.973333-69.973334h558.08c5.12 0 8.533333 0 13.653334-1.706666h5.12c1.706667 0 5.12 0 6.826666-1.706667v5.12l-1.706666-3.413333z" fill="#014463" /><path d="M529.066667 421.546667H296.96c-13.653333 0-23.893333-8.533333-23.893333-23.893334 0-13.653333 8.533333-23.893333 23.893333-23.893333H529.066667c13.653333 0 23.893333 8.533333 23.893333 23.893333 0 15.36-10.24 23.893333-23.893333 23.893334zM486.4 506.88h-139.946667c-13.653333 0-23.893333-8.533333-23.893333-23.893333 0-13.653333 8.533333-23.893333 23.893333-23.893334h139.946667c13.653333 0 23.893333 8.533333 23.893333 23.893334 0 15.36-8.533333 23.893333-23.893333 23.893333z" fill="#014463" /><path d="M520.533333 146.773333c1.706667-1.706667 5.12-1.706667 8.533334-1.706666 5.12 0 6.826667 0 8.533333 1.706666l59.733333 30.72V51.2h-136.533333v126.293333l59.733333-30.72z" fill="#F04D4E" /><path d="M619.52 232.106667c-5.12 0-6.826667 0-8.533333-1.706667l-85.333334-42.666667-83.626666 42.666667c-6.826667 5.12-17.066667 1.706667-23.893334 0-5.12-5.12-8.533333-13.653333-8.533333-20.48V23.893333c0-15.36 8.533333-23.893333 23.893333-23.893333h186.026667c13.653333 0 23.893333 8.533333 23.893333 23.893333v186.026667c0 6.826667-5.12 17.066667-11.946666 20.48-3.413333 0-8.533333 1.706667-11.946667 1.706667z m-93.866667-92.16c5.12 0 6.826667 0 8.533334 1.706666l59.733333 30.72V46.08h-139.946667v126.293333l59.733334-30.72c5.12-1.706667 6.826667-1.706667 11.946666-1.706666z" fill="#014463" /><path d="M870.4 256h93.866667v535.893333H870.4z" fill="#FFCA5D" /><path d="M964.266667 836.266667H870.4v23.893333c0 13.653333 8.533333 23.893333 23.893333 23.893333h46.08c13.653333 0 23.893333-8.533333 23.893334-23.893333V836.266667z" fill="#F04D4E" /><path d="M904.533333 203.093333h56.32L931.84 153.6z" fill="#EFC9AE" /><path d="M1020.586667 211.626667l-69.973334-116.053334c-8.533333-13.653333-32.426667-13.653333-39.253333 0l-69.973333 116.053334c-1.706667 1.706667-5.12 6.826667-5.12 11.946666V851.626667c0 39.253333 30.72 69.973333 69.973333 69.973333h46.08c39.253333 0 69.973333-30.72 69.973333-69.973333V223.573333c0-5.12-1.706667-8.533333-1.706666-11.946666z m-90.453334-59.733334l27.306667 49.493334h-58.026667l30.72-49.493334z m-47.786666 95.573334h93.866666v535.893333h-93.866666V247.466667z m93.866666 604.16c0 13.653333-8.533333 23.893333-23.893333 23.893333h-46.08c-13.653333 0-23.893333-8.533333-23.893333-23.893333v-23.893334h93.866666v23.893334z" fill="#014463" /><path d="M955.733333 256h23.893334v535.893333H955.733333z" fill="#F5B445" /><path d="M955.733333 882.346667c13.653333 0 23.893333-8.533333 23.893334-23.893334V836.266667H955.733333v46.08z" fill="#DD353F" /><path d="M672.426667 68.266667H648.533333v139.946666c0 6.826667-5.12 17.066667-11.946666 20.48-1.706667 0-6.826667 1.706667-11.946667 1.706667-5.12 0-6.826667 0-8.533333-1.706667L532.48 187.733333l-83.626667 42.666667c-1.706667 1.706667-5.12 1.706667-8.533333 1.706667 0 6.826667 5.12 17.066667 11.946667 20.48 6.826667 5.12 17.066667 5.12 23.893333 0l81.92-42.666667 83.626667 42.666667c1.706667 1.706667 5.12 1.706667 8.533333 1.706666 5.12 0 8.533333-1.706667 11.946667-1.706666 6.826667-5.12 11.946667-11.946667 11.946666-20.48V768H192.853333c-20.48 0-42.666667 8.533333-56.32 23.893333h535.893334c13.653333 0 23.893333-8.533333 23.893333-23.893333V92.16c-1.706667-15.36-10.24-23.893333-23.893333-23.893333z" fill="#C87729" /></svg>