<?xml version="1.0" standalone="no"?><!DOCTYPE svg PUBLIC "-//W3C//DTD SVG 1.1//EN" "http://www.w3.org/Graphics/SVG/1.1/DTD/svg11.dtd"><svg class="icon" width="200px" height="200.00px" viewBox="0 0 1024 1024" version="1.1" xmlns="http://www.w3.org/2000/svg"><path d="M903.04 181.6a249.28 249.28 0 0 0-352 0L507.36 224 464 181.6a249.28 249.28 0 0 0-352 0 249.28 249.28 0 0 0 0 352l390.72 391.52 4.64-4.64 4.64 4.64 391.04-391.04a249.28 249.28 0 0 0 0-352.48z" fill="#ED7899" /><path d="M296.96 280.96l79.04 79.04 130.08-130.08-79.04-79.04a92 92 0 0 0-130.08 0 92 92 0 0 0 0 130.08z" fill="#F283A5" /><path d="M791.52 393.44L449.44 736a96 96 0 0 0 0 135.84L505.92 928l410.08-410.24a88 88 0 0 0 0-124.48 88 88 0 0 0-124.48 0.16z" fill="#E0678F" /><path d="M800 464a32 32 0 0 0-27.52 16H592a16 16 0 0 0-14.24 8.8l-16 31.2-35.04-93.6a16 16 0 0 0-30.4 1.44l-43.2 163.04L416 317.76a16 16 0 0 0-32-1.92l-51.2 192-30.4-81.12a16 16 0 0 0-14.08-10.4 16 16 0 0 0-15.2 8.8L246.08 480H96a16 16 0 0 0 0 32h160a16 16 0 0 0 14.24-8.8l16-31.2 35.04 93.6A16 16 0 0 0 336 576a16 16 0 0 0 14.72-11.84l43.52-163.04L432 674.24a16 16 0 0 0 14.88 13.76H448a16 16 0 0 0 16-11.84l51.2-192 30.4 81.12a16 16 0 0 0 29.28 1.6L601.92 512h170.56A32 32 0 1 0 800 464z" fill="#FAEFDE" /><path d="M914.4 173.6a265.28 265.28 0 0 0-374.56 0l-28.64 28.64-28.64-28.64A264.96 264.96 0 1 0 107.84 548.16L423.36 864a15.04 15.04 0 0 0 0.96 1.44l22.56 22.56 1.44 0.96 28.96 28.96a48 48 0 0 0 67.84 0l369.28-369.76a264.96 264.96 0 0 0 0-374.56z m-22.56 352L522.56 895.04a16 16 0 0 1-22.72 0L130.4 525.6a232.96 232.96 0 0 1 329.44-329.44l28.64 28.64-35.84 35.84a16 16 0 1 0 22.56 22.56l64.96-64.96 22.08-22.08a232.96 232.96 0 1 1 329.6 329.44z" fill="#8D6C9F" /><path d="M503.36 785.92a16 16 0 0 0-22.56 22.56l22.56 22.56a16 16 0 0 0 22.56-22.56zM560 729.44A16 16 0 0 0 537.44 752L560 774.56A16 16 0 0 0 582.56 752zM616.64 672.8a16 16 0 0 0-22.56 22.56l22.56 22.56a16 16 0 0 0 22.56-22.56zM673.12 616.16a16 16 0 0 0-22.56 22.56l22.56 22.56a16 16 0 0 0 22.56-22.56zM729.76 560a16 16 0 0 0-22.56 22.56l22.56 22.56A16 16 0 0 0 752 582.24z" fill="#8D6C9F" /></svg>