<?xml version="1.0" standalone="no"?><!DOCTYPE svg PUBLIC "-//W3C//DTD SVG 1.1//EN" "http://www.w3.org/Graphics/SVG/1.1/DTD/svg11.dtd"><svg class="icon" width="200px" height="200.00px" viewBox="0 0 1024 1024" version="1.1" xmlns="http://www.w3.org/2000/svg"><path d="M1013.915939 583.870592c-20.098816 131.595262-91.536244 253.626261-198.025313 334.004196-71.333469 53.850964-151.798037 86.684805-241.393706 98.501523-17.690423 2.339086-37.702606 3.725212-60.071201 4.175703-18.556751 0.381184-40.128325-0.797022-64.697394-3.517293-11.383553-1.264839-22.316616-2.92819-32.833841-4.972724-95.53868-18.574078-184.077428-62.098409-253.660914-128.389848-79.234382-75.491844-129.568054-166.265719-151.001015-272.321624-5.024704-24.915601-7.883587-50.281692-8.57665-76.167581-0.190592-6.878646-0.415838-13.497394-0.675736-19.82159-0.294552-6.982606-0.207919-13.341455 0.259899-19.076549 0.849002-10.24 1.646024-19.630998 2.425719-28.172995 4.834112-53.625719 17.950321-104.825719 39.331303-153.617326 4.643519-10.603858 9.63357-20.843858 14.970152-30.737327 29.333875-54.405415 62.115736-104.981658 107.927174-147.050558 61.284061-56.259357 133.657124-95.417394 217.101861-117.508765 39.556548-10.482572 78.99181-15.749848 118.271134-15.819154 5.925685-0.017327 11.366227-1.230186 17.378545-0.762369 8.212792 0.623756 16.321624 1.178206 24.326497 1.680677 110.855364 6.843993 216.235533 49.346058 299.905517 122.845347 6.445482 5.665787 12.838985 11.40088 19.180507 17.222606 14.155804 12.994924 26.474992 27.23736 38.447648 41.445144 53.52176 63.432555 89.197157 137.867479 107.04352 223.304771 5.977665 28.606159 9.165753 59.447445 9.564264 92.541185 0.363858 29.680406-1.368799 57.091032-5.19797 82.214551zM470.468223 62.462267C374.409746 69.756751 285.836345 107.424704 212.458342 169.956277c-0.450491 0.381184-0.450491 0.762369-0.017327 1.16088 13.06423 11.45286 26.041827 23.668088 38.932792 36.628359 47.561421 47.873299 95.140169 95.677293 142.701591 143.394653 17.309239 17.378545 34.081354 34.514518 50.281692 51.442572 3.170761 3.309374 6.185584 5.405888 9.044467 6.272217 4.59154 1.403452 8.732589 1.680677 12.4578 0.831675 9.269712-2.113841 15.611235-7.017259 19.024569-14.692927 1.71533-3.863824 2.598985-10.603858 2.650964-20.237429 0.259898-52.066328 0.970288-103.162369 2.165821-153.305448 0.900981-38.309036 0.207919-76.618071 1.576717-114.90978 0.519797-14.571641 1.143553-29.541794 1.871269-44.910457 0.017327-0.467817-0.190592-0.675736-0.658409-0.658409-7.675668 0.467817-15.004805 0.952961-22.022065 1.490084z m70.397835 294.378342c-0.814349 1.836616-1.1089 3.777191-2.044535 5.475195-10.118714 18.296853-19.215161 35.120948-27.306667 50.454957-2.460372 4.660846-4.851438 9.910795-7.190524 15.749848-0.363858 0.900981-1.178206 1.576717-2.148494 1.76731-42.086227 8.264772-73.100778 49.588629-69.271608 92.454551 2.789577 31.135838 24.309171 61.44 54.526701 72.33841 25.660643 9.269712 49.883181 7.641015 72.68494-4.851438 12.111269-6.636074 22.455228-15.975093 31.066532-28.051709 14.848866-20.861184 20.635939-49.242098 12.821658-73.984434-3.257394-10.309306-7.935567-19.752284-14.051844-28.311607-0.329205-0.467817-0.519797-0.987614-0.554451-1.559391-0.086633-1.784636 0.034653-3.534619 0.398511-5.249949 3.136108-14.744907 6.410829-30.633367 9.824163-47.682707 1.16088-5.804399 2.425719-11.764738 3.777191-17.846362a7257.145178 7257.145178 0 0 1 94.53374-91.796143c8.420711-8.0222 16.702809-16.096379 24.828967-24.205211 34.15066-34.012047 63.501861-62.185042 88.088258-84.484332 1.143553-1.039594 2.339086-2.009882 3.586599-2.910863 0.55445-0.398511 0.589103-1.21286 0.086632-1.66335-50.229712-45.759459-107.476684-79.165076-171.70626-100.234179-31.239797-10.24-64.853333-16.945381-100.857936-20.133469-0.623756-0.05198-0.918308 0.225245-0.900981 0.849002 0.797022 21.762166 1.143553 44.373333 1.05692 67.850829-0.277225 69.860711-0.485144 143.36-0.623756 220.480541 0 1.05692-0.207919 2.910863-0.623756 5.544501z m-164.099899 125.14978c6.480135-0.467817 12.041963-3.222741 16.702809-8.247445 10.413266-11.244941 12.475127-23.40819 6.185584-36.455093a54.812589 54.812589 0 0 0-10.032082-14.398376c-29.576447-30.633367-59.603384-60.694958-88.833299-91.518917-15.715195-16.581523-34.20264-35.536785-55.496988-56.865786-19.059222-19.093875-41.341184-42.900575-66.828562-71.437429-0.398511-0.433164-0.797022-0.450491-1.21286-0.034653-26.78687 27.012115-51.823756 57.350931-68.925076 90.704569-29.247242 57.091032-47.388156 118.600338-51.927715 182.951201-0.121286 1.749983-0.103959 3.517293 0.017326 5.301929 0.05198 0.589103 0.363858 0.866328 0.952961 0.831675 17.55181-1.1089 32.764535-1.646024 45.638173-1.594044 69.219628 0.242572 138.352623 0.381184 207.416311 0.415838 9.997428 0.017327 20.168122 0.623756 30.044264 0.277225 12.111269-0.415838 24.447783 0.935635 36.299154 0.069306z m566.180169-84.830863c-17.10132-65.217191-50.489611-126.830457-93.927309-178.325008-0.50247-0.60643-1.004941-0.60643-1.507412-0.017327-4.48758 5.09401-9.460305 10.430592-14.883519 16.009746-25.210152 25.903215-51.217327 50.905448-76.704704 76.514112-45.049069 45.256988-88.573401 88.434788-130.572995 129.516075-3.551946 3.465313-4.868765 6.688054-4.643519 11.730084 0.467817 9.841489 7.485076 21.554247 16.772115 26.665584 0.571777 0.294552 1.16088 0.398511 1.784636 0.277225 12.076616-2.373739 24.378477-3.326701 36.905584-2.858883 18.002301 0.693063 29.420508 1.299492 34.219966 1.836616 12.752352 1.403452 25.487377 2.806904 38.222403 4.227681 3.915804 0.433164 7.883587 0.745042 11.920676 0.935635 10.014755 0.50247 19.908223 1.472758 29.853672 1.403452 9.876142-0.069306 19.492386 0.693063 29.472487 0.849001 30.512081 0.50247 62.514247 0.814349 96.041151 0.970288 12.908291 0.05198 26.492318-0.207919 40.769408-0.814348 0.727716-0.034653 1.05692-0.415838 1.004941-1.143554-2.339086-30.026937-7.259831-59.291506-14.727581-87.776379z m-542.754653 166.76819c-1.299492-4.48758-1.611371-9.73753-4.747479-13.341455-5.75242-6.584095-15.143418-9.997428-23.35621-12.994924-3.811844-1.386125-8.108832-2.113841-12.890964-2.165821-38.378342-0.398511-76.392826-0.970288-114.043452-1.71533-39.90308-0.779695-74.850761-1.178206-104.843045-1.195533-28.276954-0.017327-56.727174-1.66335-83.843249-3.101455a0.490342 0.490342 0 0 0-0.519797 0.519797c5.891032 102.642572 41.445144 193.39912 106.645008 272.286971 2.598985 3.136108 5.371235 6.116277 8.316752 8.940508 0.433164 0.433164 0.883655 0.433164 1.334145 0 21.138409-20.98247 43.992149-40.232284 65.061252-61.214755 50.368325-50.195059 100.979222-100.771303 151.815364-151.763384 6.947953-6.965279 11.314247-14.259763 13.098883-21.900778 1.05692-4.608866-0.797022-8.143486-2.027208-12.353841z m516.903418 139.565482c22.957699-49.155465 36.489746-103.110389 40.596142-161.830118 0.05198-0.745042-0.277225-1.126227-1.022267-1.126227-27.653198-0.225245-56.519255-2.581658-84.207107-2.598985-66.135499-0.05198-137.503621-0.103959-214.139018-0.155939-4.383621 0-8.386058 0.623756-11.972657 1.888596-13.72264 4.799459-21.900778 11.626125-24.863621 27.254687-1.784636 9.408325 3.361354 19.821591 10.101388 26.700236 28.190321 28.814078 55.514315 57.108359 81.954653 84.90017 43.524332 45.776785 86.996684 89.179831 131.976446 132.669509 0.259898 0.259898 0.50247 0.242572 0.745043-0.017327 29.091303-32.9378 52.690085-68.838443 70.830998-107.684602z m-584.23445 223.51269c46.383215 19.700305 96.041151 31.343756 148.973807 34.895703 0.398511 0.017327 0.60643-0.173266 0.60643-0.589104 0.05198-26.388359 2.304433-53.885618 2.495025-80.048731 0.398511-52.846024 0.398511-105.951946-0.017326-159.317766-0.121286-14.554315 0.277225-28.970017 0.103959-43.766904-0.069306-5.908359-1.039594-11.071675-2.928189-15.455296-3.690558-8.57665-7.831607-15.056785-12.423148-19.475059-17.55181-16.841421-39.816447-10.74247-55.982132 4.834112-31.93286 30.789306-63.76176 61.474653-95.504027 92.021387a3796.674924 3796.674924 0 0 0-62.219695 61.301388c-15.143418 15.264704-30.269509 31.967513-46.244602 46.885685-0.485144 0.450491-0.485144 1.230186 0.017326 1.646024 37.494687 32.452657 78.54132 58.130626 123.122572 77.068561z m210.587073-267.834044c-2.754924 5.665787-4.348968 10.829103-4.799459 15.507276-1.195533 12.371168-1.438105 25.054213-0.485144 37.442707 0.259898 3.465313-0.745042 6.653401-0.849001 10.084061-1.316819 45.620846-2.2178 94.343147-2.702944 146.18423-0.277225 30.910592 0.866328 61.751878 0.797022 92.645144 0 0.675736 0.346531 1.004941 1.022267 0.952961 102.937124-7.762301 193.364467-45.274315 271.316683-112.553367 0.398511-0.346531 0.433164-0.952961 0.05198-1.334145-19.665651-19.804264-38.170423-41.653063-57.749441-61.353368-43.853536-44.130761-89.405076-89.699628-136.637293-136.741252-8.47269-8.420711-20.168122-15.33401-31.724941-16.616176-18.366159-2.044535-30.66802 10.24-38.239729 25.781929z"  /><path d="M212.458342 169.956277C285.836345 107.424704 374.409746 69.756751 470.468223 62.462267c7.017259-0.537124 14.346396-1.022267 22.022065-1.490084 0.467817-0.017327 0.675736 0.190592 0.658409 0.658409-0.727716 15.368663-1.351472 30.338816-1.871269 44.910457-1.368799 38.291709-0.675736 76.600745-1.576717 114.90978-1.195533 50.14308-1.905922 101.23912-2.165821 153.305448-0.05198 9.63357-0.935635 16.373604-2.650964 20.237429-3.413333 7.675668-9.754856 12.579086-19.024569 14.692927-3.725212 0.849002-7.866261 0.571777-12.4578-0.831675-2.858883-0.866328-5.873706-2.962843-9.044467-6.272217-16.200338-16.928054-32.972453-34.064027-50.281692-51.442572-47.561421-47.71736-95.140169-95.521354-142.701591-143.394653-12.890964-12.960271-25.868562-25.175499-38.932792-36.628359-0.433164-0.398511-0.433164-0.779695 0.017327-1.16088z" fill="#FFA2BE" /><path d="M603.397631 387.543283c0.710389-5.70044 1.594044-11.366227 2.685618-16.997361 1.507411-7.900914 2.287107-13.566701 2.373739-16.99736 0.103959-5.284602-0.398511-11.227614-1.507411-17.829036-1.732657-10.18802-7.207851-16.772115-18.175567-15.593908-4.314315 0.467817-8.507343 2.009882-12.596413 4.608866-13.514721 8.593976-24.863621 19.31912-34.064027 32.192758-0.225245 0.311878-0.50247 0.398511-0.866328 0.277225-0.207919-0.086633-0.329205-0.207919-0.381184-0.363858 0.415838-2.633638 0.623756-4.48758 0.623756-5.544501 0.138613-77.120541 0.346531-150.619831 0.623756-220.480541 0.086633-23.477496-0.259898-46.088663-1.05692-67.850829-0.017327-0.623756 0.277225-0.900981 0.900981-0.849002 36.004602 3.188088 69.618139 9.893469 100.857936 20.133469 64.229577 21.069103 121.476548 54.474721 171.70626 100.234179 0.50247 0.450491 0.467817 1.264839-0.086632 1.66335-1.247513 0.900981-2.443046 1.871269-3.586599 2.910863-24.586396 22.299289-53.937597 50.472284-88.088258 84.484332-8.126159 8.108832-16.408257 16.183012-24.828967 24.205211a7257.145178 7257.145178 0 0 0-94.53374 91.796143zM376.766159 481.990389c-11.851371 0.866328-24.187885-0.485144-36.299154-0.069306-9.876142 0.346531-20.046836-0.259898-30.044264-0.277225-69.063689-0.034653-138.196684-0.173266-207.416311-0.415838-12.873638-0.05198-28.086362 0.485144-45.638173 1.594044-0.589103 0.034653-0.900981-0.242572-0.952961-0.831675a38.69022 38.69022 0 0 1-0.017326-5.301929c4.53956-64.350863 22.680474-125.860169 51.927715-182.951201 17.10132-33.353638 42.138206-63.692453 68.925076-90.704569 0.415838-0.415838 0.814349-0.398511 1.21286 0.034653 25.487377 28.536853 47.76934 52.343553 66.828562 71.437429 21.294349 21.329002 39.781794 40.284264 55.496988 56.865786 29.229915 30.823959 59.256853 60.88555 88.833299 91.518917 4.106396 4.245008 7.450423 9.044467 10.032082 14.398376 6.289543 13.046904 4.227682 25.210152-6.185584 36.455093-4.660846 5.024704-10.222673 7.779628-16.702809 8.247445z" fill="#FFEBEF" /><path d="M849.019019 218.834518c43.437699 51.494552 76.82599 113.107817 93.927309 178.325008 7.46775 28.484873 12.388494 57.749442 14.727581 87.776379 0.05198 0.727716-0.277225 1.1089-1.004941 1.143554-14.27709 0.60643-27.861117 0.866328-40.769408 0.814348-33.526904-0.155939-65.529069-0.467817-96.041151-0.970288-9.980102-0.155939-19.596345-0.918308-29.472487-0.849001-9.945448 0.069306-19.838917-0.900981-29.853672-1.403452-4.03709-0.190592-8.004873-0.50247-11.920676-0.935635-12.735025-1.420778-25.470051-2.82423-38.222403-4.227681-4.799459-0.537124-16.217665-1.143553-34.219966-1.836616-12.527107-0.467817-24.828968 0.485144-36.905584 2.858883-0.623756 0.121286-1.21286 0.017327-1.784636-0.277225-9.287039-5.111337-16.304298-16.824095-16.772115-26.665584-0.225245-5.04203 1.091574-8.264772 4.643519-11.730084 41.999594-41.081286 85.523926-84.259086 130.572995-129.516075 25.487377-25.608663 51.494552-50.610897 76.704704-76.514112 5.423215-5.579154 10.395939-10.915736 14.883519-16.009746 0.50247-0.589103 1.004941-0.589103 1.507412 0.017327z" fill="#FFA2BE" /><path d="M603.397631 387.543283c-1.351472 6.081624-2.616311 12.041963-3.777191 17.846362-3.413333 17.04934-6.688054 32.9378-9.824163 47.682707-0.363858 1.71533-0.485144 3.465313-0.398511 5.249949 0.034653 0.571777 0.225245 1.091574 0.554451 1.559391 6.116277 8.559323 10.79445 18.002301 14.051844 28.311607 7.814281 24.742335 2.027208 53.123249-12.821658 73.984434-8.611303 12.076616-18.955262 21.415635-31.066532 28.051709-22.80176 12.492453-47.024298 14.121151-72.68494 4.851438-30.21753-10.898409-51.737124-41.202572-54.526701-72.33841-3.829171-42.865922 27.185381-84.18978 69.271608-92.454551 0.970288-0.190592 1.784636-0.866328 2.148494-1.76731 2.339086-5.839052 4.730152-11.089002 7.190524-15.749848 8.091506-15.33401 17.187953-32.158105 27.306667-50.454957 0.935635-1.698003 1.230186-3.638579 2.044535-5.475195 0.05198 0.155939 0.173266 0.277225 0.381184 0.363858 0.363858 0.121286 0.641083 0.034653 0.866328-0.277225 9.200406-12.873638 20.549306-23.598782 34.064027-32.192758 4.089069-2.598985 8.282098-4.141049 12.596413-4.608866 10.967716-1.178206 16.44291 5.405888 18.175567 15.593908 1.1089 6.601421 1.611371 12.544433 1.507411 17.829036-0.086633 3.43066-0.866328 9.096447-2.373739 16.99736-1.091574 5.631134-1.975228 11.29692-2.685618 16.997361z" fill="#AB4C54" /><path d="M400.191675 563.927716c1.230186 4.210355 3.084129 7.744975 2.027208 12.353841-1.784636 7.641015-6.150931 14.935499-13.098883 21.900778-50.836142 50.992081-101.447039 101.568325-151.815364 151.763384-21.069103 20.98247-43.922843 40.232284-65.061252 61.214755-0.450491 0.433164-0.900981 0.433164-1.334145 0-2.945516-2.82423-5.717766-5.804399-8.316752-8.940508-65.199865-78.887851-100.753976-169.644399-106.645008-272.286971-0.017327-0.294552 0.225245-0.537124 0.519797-0.519797 27.116074 1.438105 55.566294 3.084129 83.843249 3.101455 29.992284 0.017327 64.939966 0.415838 104.843045 1.195533 37.650626 0.745042 75.66511 1.316819 114.043452 1.71533 4.782132 0.05198 9.07912 0.779695 12.890964 2.165821 8.212792 2.997496 17.60379 6.410829 23.35621 12.994924 3.136108 3.603926 3.447986 8.853875 4.747479 13.341455z" fill="#FFA2BE" /><path d="M917.095093 703.493198c-18.140914 38.846159-41.739695 74.746802-70.830998 107.684602-0.242572 0.259898-0.485144 0.277225-0.745043 0.017327-44.979763-43.489679-88.452115-86.892724-131.976446-132.669509a8451.908873 8451.908873 0 0 0-81.954653-84.90017c-6.740034-6.878646-11.886024-17.291912-10.101388-26.700236 2.962843-15.628562 11.140981-22.455228 24.863621-27.254687 3.586599-1.264839 7.589036-1.888596 11.972657-1.888596 76.635398 0.05198 148.003519 0.103959 214.139018 0.155939 27.687851 0.017327 56.553909 2.373739 84.207107 2.598985 0.745042 0 1.074247 0.381184 1.022267 1.126227-4.106396 58.719729-17.638443 112.674653-40.596142 161.830118zM332.860643 927.005888c-44.581252-18.937936-85.627885-44.615905-123.122572-77.068561-0.50247-0.415838-0.50247-1.195533-0.017326-1.646024 15.975093-14.918173 31.101184-31.620981 46.244602-46.885685 20.895838-21.051777 41.635736-41.497124 62.219695-61.301388 31.742267-30.546734 63.571168-61.232081 95.504027-92.021387 16.165685-15.576582 38.430321-21.675533 55.982132-4.834112 4.59154 4.418274 8.732589 10.898409 12.423148 19.475059 1.888596 4.383621 2.858883 9.546937 2.928189 15.455296 0.173266 14.796887-0.225245 29.212589-0.103959 43.766904 0.415838 53.365821 0.415838 106.471743 0.017326 159.317766-0.190592 26.163113-2.443046 53.660372-2.495025 80.048731 0 0.415838-0.207919 0.60643-0.60643 0.589104-52.932657-3.551946-102.590592-15.195398-148.973807-34.895703z" fill="#FFEBEF" /><path d="M543.447716 659.171844c7.571709-15.541929 19.87357-27.826464 38.239729-25.781929 11.556819 1.282166 23.25225 8.195465 31.724941 16.616176 47.232217 47.041624 92.783756 92.610491 136.637293 136.741252 19.579019 19.700305 38.08379 41.549103 57.749441 61.353368 0.381184 0.381184 0.346531 0.987614-0.05198 1.334145-77.952217 67.279052-168.37956 104.791066-271.316683 112.553367-0.675736 0.05198-1.022267-0.277225-1.022267-0.952961 0.069306-30.893266-1.074247-61.734552-0.797022-92.645144 0.485144-51.841083 1.386125-100.563384 2.702944-146.18423 0.103959-3.43066 1.1089-6.618748 0.849001-10.084061-0.952961-12.388494-0.710389-25.07154 0.485144-37.442707 0.450491-4.678173 2.044535-9.841489 4.799459-15.507276z" fill="#FFA2BE" /></svg>